<?xml version="1.0" standalone="no"?>
<!DOCTYPE svg PUBLIC "-//W3C//DTD SVG 20010904//EN"
 "http://www.w3.org/TR/2001/REC-SVG-20010904/DTD/svg10.dtd">
<svg version="1.0" xmlns="http://www.w3.org/2000/svg"
 width="1920.000000pt" height="1920.000000pt" viewBox="0 0 1920.000000 1920.000000"
 preserveAspectRatio="xMidYMid meet">

<g transform="translate(0.000000,1920.000000) scale(0.100000,-0.100000)"
fill="#000000" stroke="none">
<path d="M9240 16890 c-14 -4 -45 -8 -70 -9 -54 -1 -218 -35 -303 -62 -33 -10
-64 -19 -69 -19 -6 0 -24 -6 -41 -14 -18 -8 -61 -24 -97 -37 -35 -12 -79 -30
-98 -40 -18 -11 -37 -19 -43 -19 -5 0 -29 -9 -51 -20 -23 -11 -45 -20 -50 -20
-5 0 -27 -9 -51 -19 -23 -11 -61 -25 -85 -31 -24 -6 -59 -20 -78 -31 -19 -10
-39 -19 -44 -19 -6 0 -29 -9 -53 -19 -23 -11 -71 -29 -107 -41 -36 -12 -69
-26 -75 -31 -5 -5 -15 -9 -22 -9 -7 0 -32 -9 -56 -19 -23 -11 -71 -29 -107
-41 -36 -12 -69 -26 -75 -31 -5 -5 -15 -9 -22 -9 -8 0 -33 -9 -55 -20 -23 -11
-45 -20 -50 -20 -5 0 -27 -9 -51 -19 -23 -11 -64 -27 -92 -36 -27 -9 -72 -27
-100 -40 -27 -13 -72 -31 -100 -40 -27 -9 -63 -23 -80 -30 -16 -7 -59 -23 -95
-35 -36 -12 -69 -26 -74 -31 -6 -5 -16 -9 -23 -9 -8 0 -33 -9 -55 -20 -23 -11
-45 -20 -50 -20 -5 0 -27 -9 -51 -19 -23 -11 -64 -27 -92 -36 -27 -9 -72 -27
-100 -40 -27 -13 -79 -33 -115 -45 -36 -12 -69 -26 -74 -31 -6 -5 -16 -9 -23
-9 -7 0 -32 -9 -56 -19 -23 -11 -71 -29 -107 -41 -36 -12 -69 -26 -74 -31 -6
-5 -16 -9 -23 -9 -8 0 -33 -9 -55 -20 -23 -11 -45 -20 -50 -20 -5 0 -27 -9
-51 -19 -23 -11 -71 -29 -107 -41 -36 -12 -69 -26 -75 -31 -5 -5 -15 -9 -22
-9 -8 0 -33 -9 -55 -20 -23 -11 -45 -20 -50 -20 -5 0 -27 -9 -51 -19 -23 -11
-71 -29 -107 -41 -36 -12 -69 -26 -75 -31 -5 -5 -15 -9 -23 -9 -7 0 -41 -13
-75 -29 -34 -16 -84 -37 -112 -46 -27 -9 -63 -23 -80 -30 -16 -7 -59 -23 -95
-35 -36 -12 -69 -26 -75 -31 -5 -5 -15 -9 -22 -9 -8 0 -33 -9 -55 -20 -23 -11
-45 -20 -50 -20 -5 0 -27 -9 -51 -19 -23 -11 -71 -29 -107 -41 -36 -12 -69
-26 -75 -31 -5 -5 -15 -9 -23 -9 -7 0 -41 -13 -75 -29 -34 -16 -84 -37 -112
-46 -27 -9 -63 -23 -80 -30 -16 -8 -52 -21 -80 -30 -27 -9 -72 -27 -100 -40
-27 -13 -79 -33 -115 -45 -36 -12 -69 -26 -75 -31 -5 -5 -16 -9 -24 -9 -17 0
-291 -134 -346 -170 -22 -14 -51 -31 -65 -38 -100 -51 -346 -266 -471 -413
-204 -241 -379 -631 -425 -949 -11 -71 -11 -369 0 -440 16 -111 60 -296 81
-345 7 -16 24 -59 36 -95 21 -60 54 -127 132 -270 16 -30 51 -96 77 -147 26
-50 56 -104 67 -120 10 -15 25 -41 33 -58 8 -16 26 -48 40 -70 14 -22 37 -62
50 -90 13 -27 36 -68 50 -90 14 -22 41 -71 60 -110 19 -38 46 -88 60 -110 14
-22 32 -53 40 -70 8 -16 26 -48 40 -70 14 -22 32 -53 40 -70 8 -16 26 -48 40
-70 14 -22 32 -53 40 -70 8 -16 26 -48 40 -70 14 -22 32 -53 40 -70 8 -16 27
-49 42 -72 15 -23 28 -44 28 -48 0 -4 13 -25 28 -48 15 -23 34 -55 42 -72 8
-16 35 -61 60 -100 25 -38 52 -83 60 -100 8 -16 26 -48 40 -70 14 -22 32 -53
40 -70 8 -16 27 -49 42 -72 15 -23 28 -44 28 -48 0 -3 23 -39 50 -80 28 -41
50 -77 50 -80 0 -4 13 -26 30 -50 17 -24 30 -46 30 -50 0 -4 13 -26 30 -50 16
-24 30 -46 30 -50 0 -4 14 -26 30 -50 17 -24 30 -46 30 -50 0 -4 13 -26 30
-50 16 -24 30 -46 30 -50 0 -3 32 -53 70 -110 39 -57 70 -107 70 -110 0 -4 14
-26 30 -50 17 -24 30 -46 30 -50 0 -3 31 -53 70 -110 39 -57 70 -107 70 -110
0 -3 41 -66 90 -140 50 -74 90 -137 90 -140 0 -3 32 -53 70 -110 39 -57 70
-108 70 -112 1 -4 23 -37 50 -73 28 -36 56 -79 64 -96 9 -16 28 -46 43 -65 51
-65 176 -259 170 -265 -3 -4 -55 -10 -114 -15 -59 -5 -151 -13 -203 -18 -52
-6 -126 -13 -165 -16 -38 -3 -144 -14 -235 -25 -91 -11 -217 -24 -280 -30
-155 -14 -275 -27 -460 -50 -85 -10 -231 -28 -325 -39 -388 -47 -506 -63 -620
-80 -66 -11 -147 -22 -180 -26 -109 -11 -265 -73 -329 -129 -16 -14 -32 -26
-36 -26 -17 0 -132 -125 -156 -168 -14 -26 -36 -65 -49 -88 -13 -22 -39 -94
-57 -160 l-33 -119 0 -2125 0 -2125 38 -113 c38 -111 39 -113 123 -196 77 -78
90 -86 166 -113 75 -25 95 -28 213 -27 l130 1 205 72 c256 90 753 255 925 308
72 22 171 53 220 68 50 15 123 36 164 46 40 10 94 25 120 33 64 20 302 86 381
105 25 6 97 24 160 40 159 40 507 120 615 141 33 7 96 20 140 30 44 10 107 23
140 30 33 6 69 14 80 16 11 3 72 14 135 25 63 12 162 29 220 40 58 11 155 23
215 28 104 9 253 38 313 63 15 6 77 16 137 23 61 7 144 18 185 25 170 26 215
31 423 40 120 6 240 15 265 21 26 6 106 15 177 20 125 10 202 15 675 41 292
16 1469 15 1715 -1 105 -6 273 -16 375 -21 102 -5 228 -13 280 -19 145 -15
293 -30 415 -41 148 -13 269 -26 395 -44 58 -8 177 -24 265 -36 88 -12 187
-25 220 -31 185 -29 316 -50 360 -58 28 -5 129 -23 225 -40 96 -17 184 -32
195 -35 11 -2 47 -10 80 -16 33 -7 96 -20 140 -30 44 -10 107 -23 140 -30 33
-7 96 -20 140 -30 44 -10 125 -28 180 -40 55 -12 129 -30 165 -40 36 -10 90
-23 120 -30 30 -6 84 -20 120 -30 36 -10 90 -23 120 -30 54 -11 204 -54 324
-91 33 -11 69 -19 80 -19 12 0 75 -17 141 -39 66 -21 183 -57 260 -81 178 -55
669 -218 935 -311 l205 -72 130 -1 c118 -1 138 2 212 27 73 25 90 36 153 98
78 78 117 146 152 266 l23 78 -2 1325 c-1 729 -6 1701 -10 2160 l-9 835 -25
70 c-55 149 -93 208 -204 320 -151 150 -233 187 -500 224 -153 21 -627 82
-790 101 -49 6 -160 19 -245 30 -85 10 -184 22 -220 25 -36 3 -101 10 -145 15
-44 5 -125 14 -180 20 -55 6 -138 15 -185 21 -47 5 -139 14 -205 19 -66 5
-165 14 -220 20 -55 6 -147 14 -205 19 -146 12 -146 12 -114 69 14 26 34 56
44 67 24 28 200 293 200 302 0 5 18 31 40 58 22 28 40 53 40 58 0 4 59 95 130
202 72 107 130 197 130 200 0 3 32 53 70 110 39 57 70 107 70 110 0 4 14 26
30 50 17 24 30 46 30 50 0 3 23 39 50 80 28 41 50 77 50 80 0 3 23 39 50 80
28 41 50 77 50 80 0 4 14 26 30 50 17 24 30 46 30 50 0 4 14 26 30 50 16 24
30 46 30 50 0 4 14 26 30 50 17 24 30 46 30 50 0 3 21 38 48 78 26 40 54 86
62 102 8 17 35 62 60 100 25 39 52 84 60 100 8 17 27 49 42 72 15 23 28 44 28
48 0 4 13 25 28 48 15 23 34 56 42 72 8 17 27 49 42 72 15 23 28 44 28 48 0 4
13 25 28 48 15 23 34 56 42 72 8 17 27 49 42 72 15 23 28 44 28 48 0 4 13 25
28 48 15 23 34 56 42 72 8 17 26 48 40 70 14 22 37 63 50 90 13 28 36 68 50
90 14 22 32 54 40 70 8 17 26 48 40 70 14 22 41 72 60 110 19 39 46 88 60 110
14 22 32 54 40 70 8 17 26 48 40 70 14 22 41 72 60 110 19 39 43 83 53 99 11
15 45 78 77 140 31 61 64 125 73 141 82 150 157 396 182 595 14 105 16 279 6
345 -7 39 -17 99 -22 135 -17 100 -75 320 -90 335 -5 5 -9 15 -9 23 0 28 -124
267 -182 352 -92 133 -137 186 -275 320 -155 150 -187 176 -323 266 -103 69
-383 214 -411 214 -8 0 -19 4 -24 9 -6 5 -39 19 -75 31 -36 12 -84 30 -107 41
-24 10 -46 19 -51 19 -5 0 -27 9 -50 20 -22 11 -47 20 -55 20 -7 0 -17 4 -22
9 -6 5 -39 19 -75 31 -36 12 -84 30 -107 41 -24 10 -46 19 -51 19 -5 0 -27 9
-50 20 -22 11 -45 20 -50 20 -4 0 -27 9 -50 20 -22 11 -47 20 -55 20 -7 0 -17
4 -22 9 -6 5 -39 19 -75 31 -36 12 -84 30 -107 41 -24 10 -46 19 -51 19 -5 0
-27 9 -50 20 -22 11 -47 20 -55 20 -7 0 -17 4 -22 9 -6 5 -39 19 -75 31 -36
12 -87 32 -115 45 -27 13 -72 31 -100 40 -27 9 -69 25 -92 36 -24 10 -49 19
-56 19 -7 0 -17 4 -22 9 -6 5 -39 19 -75 31 -36 12 -84 30 -107 41 -24 10 -46
19 -51 19 -5 0 -27 9 -50 20 -22 11 -45 20 -50 20 -4 0 -27 9 -50 20 -22 11
-47 20 -55 20 -7 0 -17 4 -22 9 -6 5 -39 19 -75 31 -36 12 -78 28 -95 35 -16
7 -52 21 -80 30 -27 9 -72 27 -100 40 -27 13 -72 31 -100 40 -27 9 -63 22 -80
30 -16 7 -52 21 -80 30 -27 9 -78 30 -112 46 -34 16 -66 29 -70 29 -5 0 -28 9
-51 20 -22 11 -48 20 -56 20 -8 0 -17 4 -20 9 -3 5 -30 15 -58 22 -29 7 -67
20 -83 29 -17 9 -60 27 -95 39 -36 13 -78 29 -95 36 -16 7 -52 21 -80 30 -27
9 -72 27 -100 40 -27 13 -72 31 -100 40 -27 9 -69 25 -92 36 -24 10 -46 19
-51 19 -5 0 -27 9 -50 20 -22 11 -45 20 -50 20 -4 0 -27 9 -50 20 -22 11 -46
20 -51 20 -6 0 -26 9 -44 19 -19 11 -77 33 -128 51 -52 17 -107 38 -124 45
-16 7 -52 21 -80 30 -27 9 -69 25 -92 36 -24 10 -46 19 -51 19 -5 0 -27 9 -50
20 -22 11 -47 20 -55 20 -7 0 -17 4 -22 9 -6 5 -39 19 -75 31 -36 12 -79 28
-96 36 -103 46 -302 98 -444 116 -101 13 -469 19 -500 8z m-1818 -2319 c464
-281 955 -456 1386 -496 57 -6 72 -4 72 6 0 8 -43 62 -95 122 -53 59 -92 107
-87 107 4 0 12 -4 17 -9 16 -14 174 -81 265 -111 133 -44 241 -61 410 -65 282
-7 442 25 698 139 l103 45 -95 -108 c-53 -60 -96 -114 -96 -120 0 -13 3 -14
131 0 404 40 955 249 1383 523 l58 37 51 -17 c416 -136 763 -618 916 -1270 32
-138 92 -476 112 -638 12 -101 10 -224 -11 -606 -6 -102 -17 -311 -25 -465
-16 -308 -38 -485 -90 -705 -51 -222 -106 -399 -185 -595 -43 -107 -139 -309
-144 -304 -2 2 -9 29 -15 59 -6 30 -17 82 -25 115 -8 33 -28 120 -46 194 -31
135 -86 318 -122 401 -96 227 -243 474 -368 619 l-68 79 39 38 c116 113 166
370 120 612 -6 30 -5 42 3 42 28 0 268 -72 346 -104 55 -22 86 -30 89 -23 6
18 -150 160 -246 223 -164 108 -439 220 -668 271 l-80 18 165 3 c180 4 291 -7
447 -44 174 -40 341 -114 455 -200 42 -31 49 -34 54 -19 10 26 -4 318 -20 420
-49 307 -137 551 -284 780 -87 136 -200 270 -285 337 l-38 30 -62 -59 c-300
-286 -756 -528 -1220 -648 -129 -33 -159 -32 -77 4 36 15 124 56 195 91 72 34
189 89 260 122 147 68 275 129 275 133 0 6 -107 -28 -218 -69 -167 -61 -365
-123 -448 -141 -83 -17 -127 -9 -227 41 -38 19 -72 32 -75 29 -3 -3 31 -58 76
-124 76 -112 80 -119 59 -125 -45 -12 -73 -5 -122 29 -85 58 -158 158 -201
275 -15 39 -30 70 -34 70 -25 0 -17 -223 10 -295 6 -15 9 -29 7 -32 -2 -2 -33
6 -68 16 -108 33 -239 53 -344 53 -102 -1 -262 -27 -344 -56 -24 -9 -47 -16
-51 -16 -5 0 -2 21 6 47 16 51 20 268 5 277 -5 3 -16 -18 -26 -47 -39 -120
-151 -268 -236 -313 -39 -20 -84 -15 -256 27 -458 113 -926 359 -1239 652
l-64 59 -53 -45 c-70 -59 -181 -191 -252 -298 -120 -179 -225 -433 -274 -661
-37 -171 -65 -558 -42 -572 5 -3 29 10 54 29 124 94 298 168 499 211 100 21
159 27 318 31 243 6 270 3 165 -21 -165 -37 -382 -114 -524 -186 -144 -72
-391 -267 -391 -307 0 -8 6 -13 13 -10 113 50 384 137 425 137 9 0 12 -6 8
-17 -4 -9 -11 -64 -17 -121 -23 -227 34 -435 144 -528 l29 -25 -49 -57 c-133
-154 -234 -308 -320 -488 -129 -273 -195 -502 -242 -847 l-16 -119 -52 104
c-272 543 -398 1131 -420 1963 -13 494 57 1148 157 1466 157 499 403 853 712
1023 61 34 178 84 200 85 3 1 57 -30 120 -68z m-218 -1153 c110 -81 260 -164
433 -240 146 -63 486 -180 641 -219 50 -13 92 -27 92 -30 0 -15 -263 -84 -455
-119 -208 -38 -368 -53 -579 -54 l-208 -1 -47 52 c-176 196 -204 415 -74 574
32 39 99 99 109 99 2 0 42 -28 88 -62z m4716 3 c109 -107 144 -238 101 -378
-20 -68 -86 -178 -150 -253 l-30 -35 -208 1 c-207 1 -281 7 -528 45 -123 20
-331 66 -457 104 -56 16 -77 35 -40 35 21 0 248 66 392 114 323 107 643 264
790 388 25 20 51 37 57 38 7 0 40 -27 73 -59z m-2860 -894 c57 -190 187 -395
337 -531 l42 -38 33 26 c50 37 140 143 203 236 69 105 121 213 148 313 l22 79
185 -5 c116 -4 209 -12 250 -22 288 -70 485 -178 673 -370 77 -78 212 -267
223 -312 10 -36 -2 -64 -64 -159 -153 -232 -396 -427 -752 -602 -106 -52 -168
-88 -157 -90 10 -2 73 6 140 18 288 52 479 100 682 170 l120 42 86 -91 c96
-100 196 -243 258 -368 47 -95 83 -185 76 -192 -4 -3 -4158 -5 -4237 -2 -16 1
-16 4 -2 44 56 160 197 384 333 528 l76 81 120 -42 c195 -67 404 -120 660
-165 219 -39 224 -34 44 48 -321 148 -598 355 -747 560 -61 84 -112 173 -112
197 0 54 141 250 267 371 203 196 462 316 758 352 17 2 93 5 170 5 l140 2 25
-83z m-338 -3179 l3 -833 220 0 220 0 3 -208 c2 -161 0 -208 -10 -212 -7 -2
-275 -5 -595 -8 l-583 -4 0 1042 c0 573 3 1045 7 1048 3 4 170 7 370 7 l363 0
2 -832z m1955 819 c2 -3 37 -170 79 -373 41 -203 101 -502 135 -664 100 -496
191 -942 204 -1008 7 -35 9 -65 4 -68 -5 -3 -120 -1 -257 5 -136 6 -297 11
-358 12 -61 1 -117 4 -123 8 -6 4 -20 85 -31 184 -10 98 -22 182 -25 187 -6
10 -255 15 -255 6 0 -3 -6 -56 -14 -118 -8 -62 -18 -143 -22 -180 -3 -40 -11
-68 -18 -68 -100 -5 -743 3 -748 8 -8 8 -7 17 40 277 17 94 47 259 67 368 19
108 51 286 71 395 58 320 93 518 119 672 32 182 65 352 73 364 5 9 1050 2
1059 -7z m-1659 -3422 c2 -677 0 -791 -14 -865 -41 -221 -162 -346 -399 -410
-100 -28 -392 -39 -501 -21 -255 44 -386 165 -429 396 -16 81 -17 168 -13 867
2 482 7 781 13 787 6 5 127 11 270 12 l260 4 0 -790 c0 -878 -2 -845 66 -880
41 -22 121 -16 150 11 57 51 54 11 51 856 -3 561 0 782 8 797 11 21 16 21 273
19 l262 -3 3 -780z m857 775 c237 -7 304 -12 365 -28 159 -42 249 -107 301
-215 42 -89 51 -151 47 -315 -3 -146 -3 -147 -38 -212 -38 -71 -99 -121 -171
-140 -21 -6 -39 -14 -39 -19 0 -4 24 -17 54 -30 143 -59 212 -179 232 -401 7
-83 -10 -273 -32 -358 -34 -130 -122 -248 -216 -290 -124 -54 -144 -57 -438
-55 -151 1 -366 5 -476 9 l-202 6 -7 1014 c-4 557 -5 1020 -2 1029 7 18 154
19 622 5z m1285 -44 l185 -11 3 -835 c1 -459 5 -837 10 -841 4 -4 129 -17 277
-29 149 -12 276 -27 283 -32 9 -8 12 -61 12 -204 0 -106 -3 -195 -7 -197 -5
-3 -46 -1 -93 4 -143 16 -402 38 -685 59 -148 11 -286 22 -306 26 l-36 5 -6
556 c-4 306 -7 772 -7 1035 l0 478 93 -1 c50 -1 175 -6 277 -13z m-3997 -22
c136 -31 251 -113 302 -219 108 -221 93 -614 -30 -800 -95 -142 -240 -204
-527 -225 -81 -5 -153 -10 -161 -10 -12 0 -15 -68 -21 -412 -4 -262 -11 -415
-17 -419 -6 -3 -59 -9 -117 -13 -59 -3 -161 -13 -227 -21 -66 -8 -135 -15
-152 -15 l-33 0 1 818 c1 449 4 923 8 1052 l6 235 85 8 c163 15 526 34 668 36
100 1 165 -4 215 -15z m5152 -55 c138 -12 252 -23 255 -26 8 -8 17 -2107 9
-2117 -6 -7 -338 26 -496 50 l-33 5 -1 367 c-1 202 -3 381 -4 397 -2 21 -7
1211 -5 1333 0 15 -20 16 275 -9z m-6347 -179 c1 -102 0 -195 -3 -206 -4 -19
-14 -22 -102 -28 -128 -9 -392 -35 -421 -41 l-22 -5 2 -202 3 -202 50 2 c28 2
104 9 170 17 66 8 159 17 208 21 l87 7 0 -197 c0 -148 -3 -198 -12 -201 -7 -2
-123 -15 -257 -30 -159 -16 -248 -30 -253 -38 -11 -16 -10 -464 1 -471 4 -3
53 1 107 9 54 8 167 21 249 30 83 8 165 17 183 19 l32 5 0 -204 c0 -204 0
-205 -22 -210 -13 -3 -167 -23 -343 -45 -337 -42 -727 -97 -759 -106 -19 -6
-19 13 -13 1076 4 596 8 1084 9 1085 9 9 1039 105 1083 101 19 -1 20 -9 23
-186z m7474 90 c265 -25 496 -139 604 -297 83 -121 88 -145 92 -430 l4 -253
-24 0 c-21 0 -144 17 -408 55 -52 8 -98 15 -102 15 -5 0 -8 62 -8 138 0 251
-38 325 -168 325 -55 0 -78 -23 -88 -91 -4 -26 -4 -291 -1 -589 6 -594 4 -578
67 -638 24 -23 39 -29 81 -29 45 -1 54 3 80 32 l29 32 0 225 c0 173 3 225 13
225 37 0 526 -78 539 -86 15 -9 9 -492 -7 -566 -43 -203 -197 -302 -470 -301
-275 1 -517 82 -682 229 -109 96 -172 217 -193 366 -5 35 -10 320 -10 633 -1
541 0 574 19 648 56 216 187 331 409 357 98 11 107 11 224 0z m-9146 -120
c158 -40 247 -127 299 -293 38 -118 48 -223 43 -456 -4 -193 -6 -211 -32 -286
-46 -137 -112 -216 -245 -295 -73 -43 -81 -60 -31 -60 16 0 54 -9 84 -21 66
-24 113 -74 141 -151 19 -51 20 -77 18 -677 -1 -343 -5 -627 -10 -632 -4 -4
-80 -21 -168 -38 -130 -24 -357 -71 -527 -108 l-28 -6 0 632 c0 704 2 679 -66
701 -35 12 -151 8 -187 -5 -21 -9 -27 -172 -27 -760 0 -282 -3 -540 -6 -573
l-7 -61 -56 -12 c-31 -6 -90 -20 -131 -30 -412 -102 -518 -129 -534 -135 -17
-7 -18 48 -11 1547 4 855 11 1558 15 1562 10 11 624 104 1095 165 130 17 285
14 371 -8z m10402 -55 c53 -8 205 -31 337 -51 132 -19 294 -44 360 -55 66 -11
165 -27 220 -35 57 -9 105 -21 111 -29 5 -7 20 -107 33 -222 13 -114 27 -235
32 -268 4 -33 22 -179 39 -325 17 -146 44 -382 61 -525 17 -143 37 -314 44
-380 8 -66 23 -196 34 -290 12 -93 32 -271 46 -395 14 -124 30 -256 35 -295
22 -160 62 -546 57 -551 -3 -3 -41 5 -84 19 -123 39 -378 111 -563 158 -25 7
-48 15 -52 18 -4 3 -16 89 -27 191 -11 102 -23 209 -27 238 -3 29 -11 55 -17
57 -7 2 -75 18 -152 35 -77 17 -153 36 -169 41 -17 5 -33 6 -37 2 -4 -5 -16
-104 -27 -221 -11 -118 -23 -216 -25 -219 -3 -2 -43 4 -89 16 -150 36 -260 62
-442 102 -98 21 -181 41 -184 43 -4 5 8 123 32 311 8 61 24 191 36 290 11 99
27 227 35 285 8 58 16 128 19 155 3 28 24 196 45 375 22 179 49 406 61 505 18
159 59 497 106 890 9 72 18 133 21 138 6 10 20 9 131 -8z m-5491 -2091 c66
-50 69 -127 6 -170 -31 -20 -47 -22 -275 -26 -238 -5 -286 0 -295 27 -2 6 3
19 10 29 12 16 37 18 255 23 255 6 282 12 245 48 -16 16 -40 17 -301 13 -228
-4 -286 -8 -293 -19 -5 -8 -9 -66 -9 -129 0 -121 -6 -140 -44 -140 -48 1 -50
8 -47 176 1 90 7 164 12 171 14 16 91 20 426 19 270 -1 283 -2 310 -22z m630
12 c176 -3 195 -6 231 -26 130 -73 134 -250 8 -321 -38 -22 -43 -22 -314 -15
-305 8 -330 13 -381 72 -71 81 -60 195 25 260 41 32 85 41 174 37 36 -1 151
-4 257 -7z m-1578 -20 c16 -19 3 -46 -26 -57 -13 -5 -75 -9 -136 -9 -166 -1
-538 -27 -551 -40 -7 -7 -7 -15 0 -28 13 -20 3 -20 355 -3 292 15 321 12 359
-36 21 -28 26 -82 10 -113 -5 -10 -25 -28 -45 -40 -30 -19 -57 -22 -227 -31
-106 -5 -264 -13 -351 -19 -167 -10 -197 -6 -197 29 0 43 10 44 425 67 305 16
336 22 305 59 -12 15 -29 16 -120 11 -484 -27 -518 -28 -552 -12 -36 17 -68
61 -68 93 0 35 40 84 83 103 33 14 84 20 232 28 311 15 491 14 504 -2z m2261
-6 c379 -22 461 -30 499 -49 42 -22 71 -66 71 -109 0 -37 -58 -92 -96 -92 -34
0 -29 -10 34 -59 53 -42 61 -58 40 -79 -24 -24 -57 -11 -164 67 l-109 78 -149
9 c-126 9 -150 13 -162 28 -14 20 -5 50 18 58 7 3 92 -1 188 -8 247 -18 289
-17 297 2 12 32 -19 42 -162 53 -77 6 -206 13 -287 17 l-148 7 0 -125 c0 -111
-2 -127 -20 -143 -24 -22 -68 -13 -78 15 -4 11 -9 83 -11 161 -2 122 -1 143
15 160 20 22 10 22 224 9z m1010 -76 c389 -41 392 -41 412 -61 20 -20 16 -48
-8 -57 -7 -3 -51 -1 -96 4 -46 5 -207 21 -358 35 -151 14 -285 30 -297 35 -25
10 -32 54 -10 64 16 8 181 -1 357 -20z m-4672 4 c18 -18 14 -46 -7 -58 -11 -5
-138 -21 -283 -35 -317 -30 -335 -33 -370 -53 -56 -33 -73 -127 -30 -164 30
-27 56 -29 183 -14 68 8 206 22 307 32 165 16 185 16 199 2 18 -19 10 -55 -15
-62 -9 -3 -109 -14 -222 -26 -113 -11 -254 -26 -315 -34 -149 -18 -201 -1
-239 78 -34 72 -15 165 48 227 46 47 78 56 242 74 82 9 201 22 264 29 152 18
223 19 238 4z m5507 -98 c294 -36 460 -62 483 -76 12 -8 22 -23 22 -33 0 -39
-19 -41 -200 -15 -96 13 -247 33 -335 44 -144 18 -161 18 -175 4 -29 -29 15
-49 139 -63 254 -27 501 -70 532 -92 64 -46 78 -127 30 -173 -38 -37 -53 -37
-331 3 -124 17 -272 38 -329 46 -57 8 -110 20 -117 26 -21 17 -17 57 5 64 19
6 155 -10 366 -41 273 -41 319 -44 334 -29 14 13 13 17 -1 32 -13 12 -86 26
-290 54 -150 21 -292 41 -316 44 -62 9 -122 68 -122 119 0 47 13 72 48 90 36
20 67 19 257 -4z m-5037 -32 c5 -40 -19 -47 -164 -50 l-129 -3 -3 24 c-2 13 1
28 8 35 13 14 109 24 210 22 74 -1 75 -2 78 -28z m4262 -28 c17 -17 20 -33 20
-108 0 -93 -8 -112 -46 -112 -44 0 -54 24 -54 125 0 79 3 96 18 104 25 15 40
13 62 -9z m-6242 -67 c34 -91 32 -90 170 -70 51 7 95 11 97 8 1 -3 -18 -22
-44 -41 -25 -19 -67 -52 -93 -73 l-48 -39 16 -36 c26 -61 47 -123 42 -128 -3
-2 -44 14 -92 36 l-87 40 -89 -70 c-81 -63 -121 -87 -105 -60 9 14 65 171 65
182 0 5 -38 27 -85 49 -47 22 -85 44 -85 49 0 4 39 13 88 20 139 18 132 14
171 118 19 51 38 92 42 92 4 0 21 -35 37 -77z m1293 67 c23 -13 25 -43 3 -61
-9 -8 -66 -18 -133 -25 -96 -9 -120 -9 -138 3 -27 16 -28 22 -10 47 11 15 38
21 128 31 63 7 118 13 122 14 5 0 17 -4 28 -9z m7002 -142 c3 -13 18 -55 32
-95 31 -81 19 -74 188 -103 37 -7 67 -15 67 -19 0 -4 -30 -20 -67 -35 -38 -15
-78 -34 -90 -42 l-22 -14 34 -95 c19 -53 35 -98 35 -100 0 -14 -24 2 -100 65
-46 39 -91 70 -98 70 -8 0 -50 -16 -94 -35 -44 -20 -83 -34 -85 -31 -2 2 9 36
26 76 17 40 31 78 31 86 0 7 -32 39 -70 70 -39 31 -69 62 -67 68 4 12 57 14
135 4 l53 -7 19 42 c10 23 25 59 34 80 17 42 31 47 39 15z m-4280 -194 c58
-38 89 -113 95 -230 6 -118 -1 -158 -32 -172 -18 -8 -28 -7 -44 4 -18 12 -20
27 -23 140 l-4 126 -39 35 -39 36 -219 -7 c-120 -3 -229 -11 -241 -17 -47 -21
-57 -56 -57 -193 0 -118 -1 -126 -21 -137 -29 -15 -66 2 -75 35 -3 13 -4 78
-2 143 3 113 5 123 33 168 52 85 67 89 320 96 268 7 299 4 348 -27z m761 21
c101 -3 175 -10 183 -16 17 -15 17 -54 -2 -69 -11 -9 -100 -10 -390 -5 -374 8
-376 8 -391 30 -17 27 -9 53 20 65 20 8 180 7 580 -5z m-1584 -30 c16 -19 5
-61 -17 -69 -9 -4 -130 -13 -268 -21 -377 -22 -383 -23 -410 -75 -31 -59 -15
-135 36 -173 27 -19 30 -19 339 -1 l313 18 17 -22 c22 -27 15 -61 -14 -72 -11
-4 -163 -16 -337 -25 -349 -19 -344 -19 -400 42 -78 84 -88 206 -23 305 40 62
79 75 260 87 232 16 248 17 375 19 93 2 119 -1 129 -13z m2255 0 c246 -14 391
-28 413 -41 25 -17 29 -55 7 -74 -11 -9 -48 -10 -167 -1 -427 31 -466 32 -499
16 -56 -29 -76 -122 -39 -182 25 -42 58 -50 265 -63 282 -17 396 -28 411 -41
8 -6 14 -22 14 -34 0 -48 -10 -49 -307 -31 -389 24 -378 22 -419 58 -54 48
-78 102 -78 178 0 75 21 126 71 176 42 42 81 54 163 49 36 -3 110 -7 165 -10z
m-3165 -65 c14 -25 5 -56 -18 -65 -9 -3 -145 -19 -302 -35 -157 -17 -297 -32
-311 -35 -14 -3 -39 -20 -55 -36 -54 -56 -32 -162 39 -197 27 -13 106 -7 497
38 131 15 168 13 180 -9 31 -60 -1 -76 -175 -91 -77 -6 -216 -20 -310 -31 -93
-11 -184 -18 -200 -15 -41 8 -101 59 -128 109 -27 53 -31 175 -5 222 20 38 67
85 94 95 39 15 502 66 616 69 58 1 69 -2 78 -19z m3910 5 c295 -28 481 -53
506 -70 56 -36 77 -110 49 -169 -18 -39 -69 -76 -104 -76 -30 0 -26 -11 20
-55 57 -56 64 -71 44 -101 -28 -42 -54 -31 -150 67 -50 50 -97 94 -105 99 -8
4 -69 13 -135 20 -149 14 -175 23 -175 60 0 51 13 54 202 36 95 -9 198 -20
228 -25 61 -10 90 -1 90 28 0 39 -14 41 -450 85 -79 9 -146 13 -148 11 -2 -2
-11 -70 -19 -152 -15 -153 -26 -183 -64 -183 -10 0 -25 10 -33 23 -12 19 -12
44 -1 177 8 85 14 167 15 182 0 32 24 58 53 58 12 0 92 -7 177 -15z m-1592
-77 c8 -8 12 -50 12 -122 0 -88 -3 -113 -17 -128 -21 -23 -45 -23 -68 2 -15
17 -17 34 -13 124 3 65 10 111 18 120 15 19 51 21 68 4z m-1614 -44 c19 -19
20 -35 4 -57 -19 -25 -243 -42 -275 -21 -24 15 -29 39 -13 64 10 16 80 26 202
28 49 2 71 -2 82 -14z m2610 -3 c68 -11 90 -55 43 -86 -20 -13 -40 -13 -133
-5 -60 6 -117 13 -126 16 -23 7 -32 38 -18 64 10 18 20 20 98 19 48 0 109 -4
136 -8z"/>
<path d="M7990 13506 c92 -48 736 -346 748 -346 12 0 175 230 168 237 -2 2
-30 -9 -62 -25 -33 -16 -83 -37 -112 -46 -48 -14 -61 -14 -132 0 -67 12 -307
89 -555 177 -110 39 -125 40 -55 3z"/>
<path d="M8645 12096 c-94 -23 -166 -66 -242 -143 -40 -41 -73 -81 -73 -89 0
-25 107 -161 210 -268 142 -147 308 -263 446 -311 l50 -18 44 28 c184 116 437
134 638 44 34 -15 75 -37 91 -48 38 -27 42 -27 133 13 96 42 220 124 320 213
117 105 288 311 288 348 0 27 -139 159 -199 189 -57 28 -156 56 -203 56 -25 0
-32 -9 -67 -79 -114 -226 -332 -421 -582 -520 l-56 -22 -59 22 c-242 91 -463
288 -582 521 -35 68 -40 73 -72 75 -19 1 -57 -4 -85 -11z"/>
<path d="M10161 9618 c-52 -290 -123 -767 -115 -779 5 -9 227 -13 236 -4 2 2
-1 46 -8 97 -25 182 -64 485 -79 612 -9 72 -17 132 -19 133 -2 2 -9 -24 -15
-59z"/>
<path d="M9807 7193 c-4 -3 -7 -102 -7 -218 0 -176 3 -215 15 -225 10 -8 39
-11 85 -8 60 3 74 8 98 31 27 27 27 28 30 193 4 188 -1 206 -65 223 -42 12
-146 15 -156 4z"/>
<path d="M9808 6414 c-5 -4 -8 -134 -8 -289 0 -240 2 -284 15 -295 21 -18 133
-7 181 16 75 37 79 52 79 262 0 167 -2 191 -20 226 -32 64 -64 80 -158 84 -45
2 -85 0 -89 -4z"/>
<path d="M6738 7074 c-5 -4 -8 -117 -8 -251 l0 -243 48 0 c26 1 69 9 97 18 41
14 54 25 75 62 23 42 25 55 25 180 0 148 -8 177 -58 214 -21 15 -47 22 -100
24 -40 2 -75 0 -79 -4z"/>
<path d="M3620 6591 l-35 -6 -3 -284 -2 -283 22 5 c13 3 58 11 101 18 45 7 92
21 110 33 67 44 103 169 94 324 -9 159 -49 203 -182 201 -38 -1 -86 -4 -105
-8z"/>
<path d="M15117 6483 c-2 -4 -7 -64 -11 -133 -4 -69 -13 -219 -21 -335 -30
-419 -35 -494 -46 -710 -6 -121 -10 -233 -8 -249 4 -28 7 -30 104 -52 55 -13
112 -23 127 -23 27 -1 27 1 23 42 -7 65 -35 446 -50 687 -3 52 -12 167 -20
255 -8 88 -19 237 -26 330 -6 94 -14 173 -18 176 -11 12 -49 20 -54 12z"/>
<path d="M9459 4951 c-48 -48 -32 -136 28 -159 15 -6 137 -13 270 -17 274 -7
294 -3 311 59 21 75 -16 125 -101 137 -28 4 -148 8 -265 8 l-214 1 -29 -29z"/>
<path d="M5277 4676 l-28 -74 -84 -13 c-47 -7 -85 -15 -85 -19 0 -4 27 -19 60
-34 32 -15 62 -31 65 -35 3 -5 -7 -39 -20 -76 -14 -37 -24 -70 -21 -72 3 -3
34 18 69 46 36 28 69 51 75 51 6 0 40 -13 77 -30 37 -16 68 -30 70 -30 2 0 -7
27 -21 60 -13 33 -24 66 -24 73 0 7 30 35 67 62 76 56 71 64 -33 46 -36 -7
-68 -9 -73 -7 -4 3 -18 33 -30 66 -12 33 -25 60 -29 60 -4 0 -20 -33 -35 -74z"/>
<path d="M13600 4576 c-11 -26 -20 -51 -20 -55 0 -24 -25 -28 -93 -15 -40 8
-75 14 -79 14 -19 0 -3 -19 57 -65 36 -27 65 -52 65 -55 0 -4 -11 -35 -25 -70
-14 -35 -23 -65 -21 -67 2 -2 33 10 68 26 36 17 69 31 74 31 5 0 38 -25 74
-55 36 -30 66 -51 68 -46 1 4 -7 33 -18 66 -11 32 -20 64 -20 72 0 8 30 28 68
45 l67 32 -65 13 c-114 24 -112 22 -140 95 -14 36 -28 70 -32 74 -4 4 -17 -14
-28 -40z"/>
</g>
</svg>
