<?xml version="1.0" encoding="UTF-8"?>
<!DOCTYPE svg PUBLIC "-//W3C//DTD SVG 1.1//EN" "http://www.w3.org/Graphics/SVG/1.1/DTD/svg11.dtd">
<svg xmlns="http://www.w3.org/2000/svg" version="1.1" width="1200px" height="1200px" style="shape-rendering:geometricPrecision; text-rendering:geometricPrecision; image-rendering:optimizeQuality; fill-rule:evenodd; clip-rule:evenodd" xmlns:xlink="http://www.w3.org/1999/xlink">
<g><path style="opacity:0.96" fill="#040305" d="M 642.5,173.5 C 645.096,173.759 647.763,174.759 650.5,176.5C 653.715,177.098 656.715,178.432 659.5,180.5C 660.086,180.291 660.586,179.957 661,179.5C 662.8,181.145 664.8,182.478 667,183.5C 667.414,183.043 667.914,182.709 668.5,182.5C 670.065,183.238 671.732,184.238 673.5,185.5C 674.878,186.234 676.378,186.901 678,187.5C 678.333,187.167 678.667,186.833 679,186.5C 680.129,188.141 681.629,189.141 683.5,189.5C 690.557,192.206 698.557,195.206 707.5,198.5C 712.712,201.525 718.379,203.858 724.5,205.5C 726.939,206.057 729.606,207.057 732.5,208.5C 735.096,208.759 737.763,209.759 740.5,211.5C 741.189,212.774 742.023,212.774 743,211.5C 743.317,213.301 743.984,213.634 745,212.5C 746.684,214.701 748.684,215.367 751,214.5C 752.333,215.167 753.333,216.167 754,217.5C 754.333,217.167 754.667,216.833 755,216.5C 758.664,217.862 762.164,219.529 765.5,221.5C 766.313,222.653 767.313,222.653 768.5,221.5C 770.228,223.226 772.228,224.559 774.5,225.5C 775.086,225.291 775.586,224.957 776,224.5C 777.741,225.758 779.574,226.758 781.5,227.5C 782.189,228.774 783.023,228.774 784,227.5C 786.01,228.848 788.01,230.182 790,231.5C 790.772,231.355 791.439,231.022 792,230.5C 793.871,232.303 796.038,233.636 798.5,234.5C 799.086,234.291 799.586,233.957 800,233.5C 802.069,235.085 804.236,236.419 806.5,237.5C 807.542,238.791 808.708,238.791 810,237.5C 811.782,240.235 814.115,241.235 817,240.5C 819.034,242.032 821.201,243.365 823.5,244.5C 824.086,244.291 824.586,243.957 825,243.5C 827.165,244.583 829.165,245.916 831,247.5C 831.772,247.355 832.439,247.022 833,246.5C 835.034,248.032 837.201,249.365 839.5,250.5C 840.086,250.291 840.586,249.957 841,249.5C 843.718,252.875 847.051,254.208 851,253.5C 852.819,256.257 855.152,257.257 858,256.5C 860.034,258.032 862.201,259.365 864.5,260.5C 865.086,260.291 865.586,259.957 866,259.5C 871.407,261.247 876.24,263.581 880.5,266.5C 881.086,266.291 881.586,265.957 882,265.5C 884.376,267.64 887.043,269.306 890,270.5C 890.414,270.043 890.914,269.709 891.5,269.5C 892.94,270.952 894.606,271.952 896.5,272.5C 897.189,273.774 898.023,273.774 899,272.5C 901.034,274.032 903.201,275.365 905.5,276.5C 906.086,276.291 906.586,275.957 907,275.5C 908.973,276.64 910.807,277.973 912.5,279.5C 913.086,279.291 913.586,278.957 914,278.5C 915.601,280.972 917.601,281.972 920,281.5C 921.624,283.158 923.291,284.825 925,286.5C 925.333,286.167 925.667,285.833 926,285.5C 928.576,288.007 931.243,290.34 934,292.5C 934.333,292.167 934.667,291.833 935,291.5C 936,292.833 937,294.167 938,295.5C 938.333,295.167 938.667,294.833 939,294.5C 940.563,297.728 943.063,299.895 946.5,301C 946.167,301.333 945.833,301.667 945.5,302C 946.833,302.667 948.167,303.333 949.5,304C 949.167,304.333 948.833,304.667 948.5,305C 950.607,307.227 952.94,309.227 955.5,311C 955.167,311.333 954.833,311.667 954.5,312C 959.903,318.134 964.569,324.801 968.5,332C 967.939,333.566 968.606,334.899 970.5,336C 969.366,337.016 969.699,337.683 971.5,338C 970.226,338.977 970.226,339.811 971.5,340.5C 972.441,342.466 973.441,344.466 974.5,346.5C 974.069,347.293 973.735,348.127 973.5,349C 974.611,352.301 975.944,355.468 977.5,358.5C 976.313,360.21 976.646,361.71 978.5,363C 977.167,371.333 977.167,379.667 978.5,388C 976.646,389.29 976.313,390.79 977.5,392.5C 977.023,393.478 976.357,394.311 975.5,395C 975.833,395.333 976.167,395.667 976.5,396C 975.139,397.584 974.472,399.418 974.5,401.5C 973.209,402.542 973.209,403.708 974.5,405C 973.242,406.741 972.242,408.574 971.5,410.5C 970.226,411.189 970.226,412.023 971.5,413C 968.514,416.205 966.514,419.705 965.5,423.5C 963.021,427.681 960.688,432.015 958.5,436.5C 954.444,445.398 949.111,455.065 942.5,465.5C 941.167,465.833 941.167,466.167 942.5,466.5C 940.26,471.531 937.26,476.531 933.5,481.5C 931.245,485.451 928.912,489.451 926.5,493.5C 924.519,496.128 923.019,499.128 922,502.5C 919.891,503.035 919.391,504.035 920.5,505.5C 919.509,507.323 918.176,508.823 916.5,510C 916.833,510.333 917.167,510.667 917.5,511C 916.167,512.333 914.833,513.667 913.5,515C 913.833,515.333 914.167,515.667 914.5,516C 911.345,519.309 908.678,522.976 906.5,527C 907.345,528.558 906.679,529.558 904.5,530C 904.5,531 904.5,532 904.5,533C 901.812,535.754 899.479,538.754 897.5,542C 897.833,542.333 898.167,542.667 898.5,543C 894.812,547.527 891.479,552.36 888.5,557.5C 885.606,563.071 882.272,568.404 878.5,573.5C 876.692,576.887 874.692,580.22 872.5,583.5C 871.802,585.667 870.469,587.5 868.5,589C 868.833,589.333 869.167,589.667 869.5,590C 868.167,591.333 866.833,592.667 865.5,594C 865.833,594.333 866.167,594.667 866.5,595C 864.616,596.049 863.282,597.549 862.5,599.5C 861.167,599.833 861.167,600.167 862.5,600.5C 856.093,609.773 849.76,619.106 843.5,628.5C 842.799,630.71 841.465,632.544 839.5,634C 839.833,634.333 840.167,634.667 840.5,635C 839.299,635.903 838.465,637.069 838,638.5C 837.667,638.167 837.333,637.833 837,637.5C 836.705,639.931 835.538,641.764 833.5,643C 833.833,643.333 834.167,643.667 834.5,644C 831.425,646.211 829.758,648.878 829.5,652C 828.263,652.232 827.263,652.732 826.5,653.5C 813.796,652.919 801.13,651.919 788.5,650.5C 799.426,634.309 810.093,617.976 820.5,601.5C 832.33,583.845 843.664,565.845 854.5,547.5C 866.585,529.004 877.919,510.004 888.5,490.5C 896.197,478.114 903.53,465.447 910.5,452.5C 920.418,435.668 929.585,418.335 938,400.5C 942.189,388.974 943.356,377.308 941.5,365.5C 938.487,343.477 927.82,326.143 909.5,313.5C 900.919,307.375 891.586,302.542 881.5,299C 842.86,284.065 804.193,269.232 765.5,254.5C 714.291,233.595 662.625,213.762 610.5,195C 598.61,193.69 586.943,194.69 575.5,198C 529.966,215.611 484.633,233.444 439.5,251.5C 390.789,269.515 342.455,288.682 294.5,309C 292.907,309.949 291.574,311.115 290.5,312.5C 273.073,324.002 262.073,340.002 257.5,360.5C 253.516,379.108 256.349,396.775 266,413.5C 272.846,425.86 279.679,438.194 286.5,450.5C 294.833,465.167 303.167,479.833 311.5,494.5C 322.012,512.87 333.012,530.87 344.5,548.5C 354.419,566.013 365.086,583.013 376.5,599.5C 387.24,616.642 398.24,633.642 409.5,650.5C 396.514,651.642 383.514,652.642 370.5,653.5C 368.612,652.06 367.945,650.393 368.5,648.5C 365.418,646.487 363.752,643.987 363.5,641C 361.842,639.376 360.175,637.709 358.5,636C 358.833,635.667 359.167,635.333 359.5,635C 353.517,626.771 347.85,618.771 342.5,611C 342.833,610.667 343.167,610.333 343.5,610C 342.167,609 340.833,608 339.5,607C 339.833,606.667 340.167,606.333 340.5,606C 339.167,604.667 337.833,603.333 336.5,602C 336.959,600.057 335.959,598.724 333.5,598C 333.5,597 333.5,596 333.5,595C 331.521,591.754 329.188,588.754 326.5,586C 326.959,584.057 325.959,582.724 323.5,582C 323.833,581.667 324.167,581.333 324.5,581C 318.979,573.087 313.313,564.753 307.5,556C 307.5,555 307.5,554 307.5,553C 305.974,550.294 303.974,547.961 301.5,546C 301.833,545.667 302.167,545.333 302.5,545C 295.078,534.693 288.411,524.36 282.5,514C 282.5,513 282.5,512 282.5,511C 281.167,509.667 279.833,508.333 278.5,507C 278.833,506.667 279.167,506.333 279.5,506C 278.167,504.667 276.833,503.333 275.5,502C 275.833,501.667 276.167,501.333 276.5,501C 274.75,498.982 273.416,496.815 272.5,494.5C 271.051,491.668 269.218,489.002 267,486.5C 266.768,483.262 265.268,480.762 262.5,479C 262.833,478.667 263.167,478.333 263.5,478C 259.338,469.942 254.672,462.609 249.5,456C 249.5,455 249.5,454 249.5,453C 247.758,450.203 245.758,447.536 243.5,445C 243.833,444.667 244.167,444.333 244.5,444C 238.469,434.156 232.803,424.489 227.5,415C 228.016,411.987 227.016,409.32 224.5,407C 224.957,406.586 225.291,406.086 225.5,405.5C 224.833,405.167 224.167,404.833 223.5,404.5C 224.315,401.586 223.649,398.919 221.5,396.5C 221.987,395.554 222.32,394.554 222.5,393.5C 221.492,387.484 220.492,381.484 219.5,375.5C 220.283,369.81 221.283,364.143 222.5,358.5C 222.244,357.311 221.911,356.144 221.5,355C 222.096,353.003 223.096,350.837 224.5,348.5C 224.167,347.833 223.833,347.167 223.5,346.5C 223.846,345.304 224.346,345.304 225,346.5C 225.617,345.551 225.451,344.718 224.5,344C 226.032,341.966 227.365,339.799 228.5,337.5C 228.291,336.914 227.957,336.414 227.5,336C 229.972,334.399 230.972,332.399 230.5,330C 233.644,326.21 236.144,322.043 238,317.5C 239.665,315.167 241.832,313 244.5,311C 244.167,310.667 243.833,310.333 243.5,310C 250,303.833 256.5,297.667 263,291.5C 263.333,291.833 263.667,292.167 264,292.5C 266.53,289.994 269.197,287.661 272,285.5C 272.333,285.833 272.667,286.167 273,286.5C 277.519,283.023 282.019,280.356 286.5,278.5C 288.1,277.748 289.6,276.748 291,275.5C 291.414,275.957 291.914,276.291 292.5,276.5C 294.799,275.365 296.966,274.032 299,272.5C 299.977,273.774 300.811,273.774 301.5,272.5C 303.394,271.952 305.06,270.952 306.5,269.5C 307.687,270.653 308.687,270.653 309.5,269.5C 313.207,267.399 317.207,265.899 321.5,265C 322.632,262.79 324.132,262.29 326,263.5C 327.605,262.899 328.938,261.899 330,260.5C 331.016,261.634 331.683,261.301 332,259.5C 332.977,260.774 333.811,260.774 334.5,259.5C 336.426,258.758 338.259,257.758 340,256.5C 340.414,256.957 340.914,257.291 341.5,257.5C 343.772,256.559 345.772,255.226 347.5,253.5C 348.687,254.653 349.687,254.653 350.5,253.5C 353.025,252.319 355.525,250.986 358,249.5C 360.754,250.122 363.087,249.122 365,246.5C 367.54,247.876 369.54,247.21 371,244.5C 372.016,245.634 372.683,245.301 373,243.5C 373.414,243.957 373.914,244.291 374.5,244.5C 376.799,243.365 378.966,242.032 381,240.5C 381.977,241.774 382.811,241.774 383.5,240.5C 386.237,238.759 388.904,237.759 391.5,237.5C 394.025,236.319 396.525,234.986 399,233.5C 401.848,234.257 404.181,233.257 406,230.5C 408.316,231.367 410.316,230.701 412,228.5C 412.333,228.833 412.667,229.167 413,229.5C 413.605,227.519 414.605,227.185 416,228.5C 418.72,226.043 421.554,224.71 424.5,224.5C 427.237,222.759 429.904,221.759 432.5,221.5C 435.025,220.319 437.525,218.986 440,217.5C 442.091,218.5 443.757,217.833 445,215.5C 445.333,215.833 445.667,216.167 446,216.5C 446.605,214.519 447.605,214.185 449,215.5C 451.552,214.807 453.719,213.473 455.5,211.5C 457.595,212.229 459.428,211.563 461,209.5C 462.016,210.634 462.683,210.301 463,208.5C 463.977,209.774 464.811,209.774 465.5,208.5C 468.237,206.759 470.904,205.759 473.5,205.5C 478.647,202.923 483.814,200.59 489,198.5C 491.562,198.738 493.896,197.738 496,195.5C 496.414,195.957 496.914,196.291 497.5,196.5C 500.068,194.283 503.068,193.116 506.5,193C 505.66,191.334 506.16,191.167 508,192.5C 510.062,190.367 512.229,189.367 514.5,189.5C 520.835,186.762 526.835,184.429 532.5,182.5C 537.047,181.319 541.214,179.319 545,176.5C 545.561,177.022 546.228,177.355 547,177.5C 548.99,176.182 550.99,174.848 553,173.5C 553.977,174.774 554.811,174.774 555.5,173.5C 562.782,171.432 569.282,169.099 575,166.5C 577.776,167.648 580.443,167.314 583,165.5C 584.507,166.535 586.007,166.368 587.5,165C 598.947,163.8 609.947,164.633 620.5,167.5C 622.699,165.851 624.532,166.184 626,168.5C 627.147,167.542 628.147,167.875 629,169.5C 629.333,169.167 629.667,168.833 630,168.5C 634.25,169.907 638.416,171.574 642.5,173.5 Z"/></g>
<g><path style="opacity:0.004" fill="#000000" d="M 577.5,165.5 C 578.833,166.167 578.833,166.167 577.5,165.5 Z"/></g>
<g><path style="opacity:0.004" fill="#000000" d="M 619.5,165.5 C 620.833,166.167 620.833,166.167 619.5,165.5 Z"/></g>
<g><path style="opacity:0.004" fill="#000000" d="M 555.5,173.5 C 554.833,172.167 554.833,172.167 555.5,173.5 Z"/></g>
<g><path style="opacity:0.004" fill="#000000" d="M 642.5,172.5 C 643.833,173.167 643.833,173.167 642.5,172.5 Z"/></g>
<g><path style="opacity:0.004" fill="#000000" d="M 650.5,175.5 C 651.833,176.167 651.833,176.167 650.5,175.5 Z"/></g>
<g><path style="opacity:0.004" fill="#000000" d="M 532.5,182.5 C 531.833,181.167 531.833,181.167 532.5,182.5 Z"/></g>
<g><path style="opacity:0.004" fill="#000000" d="M 673.5,184.5 C 674.833,185.167 674.833,185.167 673.5,184.5 Z"/></g>
<g><path style="opacity:0.004" fill="#000000" d="M 514.5,189.5 C 513.833,188.167 513.833,188.167 514.5,189.5 Z"/></g>
<g><path style="opacity:0.004" fill="#000000" d="M 683.5,188.5 C 684.833,189.167 684.833,189.167 683.5,188.5 Z"/></g>
<g><path style="opacity:0.004" fill="#000000" d="M 707.5,197.5 C 708.833,198.167 708.833,198.167 707.5,197.5 Z"/></g>
<g><path style="opacity:1" fill="#984593" d="M 765.5,254.5 C 764.85,254.804 764.183,255.137 763.5,255.5C 761.015,254.21 758.848,253.21 757,252.5C 722.233,253.163 687.4,253.83 652.5,254.5C 652.863,255.183 653.196,255.85 653.5,256.5C 639.915,252.027 626.582,246.86 613.5,241C 608.609,239.313 603.609,238.146 598.5,237.5C 594.446,238.024 590.446,238.857 586.5,240C 575.537,244.484 564.537,248.651 553.5,252.5C 551.69,251.045 550.023,251.212 548.5,253C 530.667,253.167 512.833,253.333 495,253.5C 476.35,253.474 457.85,252.808 439.5,251.5C 484.633,233.444 529.966,215.611 575.5,198C 586.943,194.69 598.61,193.69 610.5,195C 662.625,213.762 714.291,233.595 765.5,254.5 Z"/></g>
<g><path style="opacity:0.004" fill="#000000" d="M 473.5,205.5 C 472.833,204.167 472.833,204.167 473.5,205.5 Z"/></g>
<g><path style="opacity:0.004" fill="#000000" d="M 724.5,204.5 C 725.833,205.167 725.833,205.167 724.5,204.5 Z"/></g>
<g><path style="opacity:0.004" fill="#000000" d="M 465.5,208.5 C 464.833,207.167 464.833,207.167 465.5,208.5 Z"/></g>
<g><path style="opacity:0.004" fill="#000000" d="M 732.5,207.5 C 733.833,208.167 733.833,208.167 732.5,207.5 Z"/></g>
<g><path style="opacity:0.004" fill="#000000" d="M 740.5,210.5 C 741.833,211.167 741.833,211.167 740.5,210.5 Z"/></g>
<g><path style="opacity:0.004" fill="#000000" d="M 432.5,221.5 C 431.833,220.167 431.833,220.167 432.5,221.5 Z"/></g>
<g><path style="opacity:0.004" fill="#000000" d="M 765.5,220.5 C 766.833,221.167 766.833,221.167 765.5,220.5 Z"/></g>
<g><path style="opacity:0.004" fill="#000000" d="M 424.5,224.5 C 423.833,223.167 423.833,223.167 424.5,224.5 Z"/></g>
<g><path style="opacity:0.004" fill="#000000" d="M 781.5,226.5 C 782.833,227.167 782.833,227.167 781.5,226.5 Z"/></g>
<g><path style="opacity:0.004" fill="#000000" d="M 789.5,229.5 C 790.833,230.167 790.833,230.167 789.5,229.5 Z"/></g>
<g><path style="opacity:0.004" fill="#000000" d="M 391.5,237.5 C 390.833,236.167 390.833,236.167 391.5,237.5 Z"/></g>
<g><path style="opacity:0.004" fill="#000000" d="M 806.5,236.5 C 807.833,237.167 807.833,237.167 806.5,236.5 Z"/></g>
<g><path style="opacity:1" fill="#040405" d="M 653.5,256.5 C 703.727,276.447 754.061,296.114 804.5,315.5C 828.728,325.08 853.062,334.58 877.5,344C 887.106,349.105 894.106,356.605 898.5,366.5C 899.946,372.557 899.779,378.557 898,384.5C 886.729,406.047 875.229,427.38 863.5,448.5C 854.584,463.329 845.917,478.329 837.5,493.5C 826.514,511.464 815.514,529.464 804.5,547.5C 793.446,563.893 782.78,580.56 772.5,597.5C 760.866,614.143 749.199,630.81 737.5,647.5C 735.167,647.5 732.833,647.5 730.5,647.5C 736.517,613.434 742.85,579.434 749.5,545.5C 761.774,522.351 769.608,497.684 773,471.5C 773.638,449.635 774.804,427.802 776.5,406C 775.323,378.096 768.823,351.596 757,326.5C 748.017,309.346 734.517,297.346 716.5,290.5C 690.842,306.988 662.842,317.321 632.5,321.5C 631.5,321.333 630.5,321.167 629.5,321C 633.5,316.667 637.5,312.333 641.5,308C 634.735,310.818 627.735,313.485 620.5,316C 598.128,321.627 576.961,318.793 557,307.5C 556.333,308.167 556.333,308.833 557,309.5C 560.869,313.034 564.369,316.867 567.5,321C 552.324,320.725 537.658,317.725 523.5,312C 508.514,305.646 494.014,298.48 480,290.5C 464.39,296.106 452.39,306.106 444,320.5C 434.915,335.676 428.915,352.009 426,369.5C 418.699,415.941 420.699,461.941 432,507.5C 435.858,521.213 441.358,534.213 448.5,546.5C 449.167,543.358 449.834,540.358 450.5,537.5C 450.334,542.511 450.501,547.511 451,552.5C 457.59,583.71 463.424,615.044 468.5,646.5C 465.794,646.575 463.127,646.908 460.5,647.5C 449.467,631.477 438.467,615.477 427.5,599.5C 416.237,582.634 405.237,565.634 394.5,548.5C 383.901,531.631 373.568,514.631 363.5,497.5C 354.485,482.131 345.485,466.798 336.5,451.5C 325.012,430.527 313.512,409.527 302,388.5C 299.439,380.921 298.939,373.255 300.5,365.5C 304.173,356.658 310.173,349.825 318.5,345C 342.245,335.452 365.912,325.952 389.5,316.5C 444.344,295.771 499.011,274.438 553.5,252.5C 564.537,248.651 575.537,244.484 586.5,240C 590.446,238.857 594.446,238.024 598.5,237.5C 603.609,238.146 608.609,239.313 613.5,241C 626.582,246.86 639.915,252.027 653.5,256.5 Z"/></g>
<g><path style="opacity:0.004" fill="#000000" d="M 383.5,240.5 C 382.833,239.167 382.833,239.167 383.5,240.5 Z"/></g>
<g><path style="opacity:0.004" fill="#000000" d="M 350.5,253.5 C 349.833,252.167 349.833,252.167 350.5,253.5 Z"/></g>
<g><path style="opacity:0.004" fill="#000000" d="M 334.5,259.5 C 333.833,258.167 333.833,258.167 334.5,259.5 Z"/></g>
<g><path style="opacity:1" fill="#924192" d="M 439.5,251.5 C 457.85,252.808 476.35,253.474 495,253.5C 512.833,253.333 530.667,253.167 548.5,253C 550.023,251.212 551.69,251.045 553.5,252.5C 499.011,274.438 444.344,295.771 389.5,316.5C 356.233,315.84 322.9,315.173 289.5,314.5C 289.863,313.817 290.196,313.15 290.5,312.5C 291.574,311.115 292.907,309.949 294.5,309C 342.455,288.682 390.789,269.515 439.5,251.5 Z"/></g>
<g><path style="opacity:1" fill="#924192" d="M 765.5,254.5 C 804.193,269.232 842.86,284.065 881.5,299C 891.586,302.542 900.919,307.375 909.5,313.5C 876.277,315.17 842.777,316.17 809,316.5C 807.644,315.62 806.144,315.286 804.5,315.5C 754.061,296.114 703.727,276.447 653.5,256.5C 653.196,255.85 652.863,255.183 652.5,254.5C 687.4,253.83 722.233,253.163 757,252.5C 758.848,253.21 761.015,254.21 763.5,255.5C 764.183,255.137 764.85,254.804 765.5,254.5 Z"/></g>
<g><path style="opacity:0.004" fill="#000000" d="M 309.5,269.5 C 308.833,268.167 308.833,268.167 309.5,269.5 Z"/></g>
<g><path style="opacity:0.004" fill="#000000" d="M 301.5,272.5 C 300.833,271.167 300.833,271.167 301.5,272.5 Z"/></g>
<g><path style="opacity:0.004" fill="#000000" d="M 896.5,271.5 C 897.833,272.167 897.833,272.167 896.5,271.5 Z"/></g>
<g><path style="opacity:0.004" fill="#000000" d="M 286.5,278.5 C 285.833,277.167 285.833,277.167 286.5,278.5 Z"/></g>
<g><path style="opacity:1" fill="#b895c0" d="M 749.5,545.5 C 749.328,540.652 748.328,535.985 746.5,531.5C 742.69,505.385 732.024,482.552 714.5,463C 721.463,455.621 724.796,446.788 724.5,436.5C 724.261,432.484 723.928,428.484 723.5,424.5C 731.073,426.081 738.406,428.415 745.5,431.5C 746.521,430.998 746.688,430.332 746,429.5C 731.056,415.946 713.556,407.613 693.5,404.5C 699.979,403.509 706.646,403.176 713.5,403.5C 728.65,404.163 742.15,409.163 754,418.5C 755.626,392.669 749.293,369.002 735,347.5C 730.685,342.018 725.851,337.018 720.5,332.5C 696.224,355.264 667.558,368.764 634.5,373C 627.331,367.829 622.498,360.996 620,352.5C 618.979,358.946 619.812,365.113 622.5,371C 614.261,368.621 605.761,367.121 597,366.5C 589.565,366.511 582.565,368.178 576,371.5C 577.416,365.324 577.749,358.991 577,352.5C 574.745,361.184 569.912,368.017 562.5,373C 547.236,371.516 532.569,367.516 518.5,361C 503.282,353.437 489.449,343.937 477,332.5C 463.355,344.434 453.688,359.101 448,376.5C 445.4,385.331 443.9,394.331 443.5,403.5C 442.186,408.348 442.186,413.348 443.5,418.5C 444.107,418.376 444.44,418.043 444.5,417.5C 455.365,409.246 467.698,404.579 481.5,403.5C 489.352,403.175 497.018,403.508 504.5,404.5C 483.425,407.204 465.425,416.038 450.5,431C 456.66,428.869 462.993,426.869 469.5,425C 471.259,424.202 472.926,424.369 474.5,425.5C 473.37,432.45 473.203,439.45 474,446.5C 474.973,453.281 478.14,458.781 483.5,463C 464.236,483.701 453.236,508.201 450.5,536.5C 450.5,536.833 450.5,537.167 450.5,537.5C 449.834,540.358 449.167,543.358 448.5,546.5C 441.358,534.213 435.858,521.213 432,507.5C 420.699,461.941 418.699,415.941 426,369.5C 428.915,352.009 434.915,335.676 444,320.5C 452.39,306.106 464.39,296.106 480,290.5C 494.014,298.48 508.514,305.646 523.5,312C 537.658,317.725 552.324,320.725 567.5,321C 564.369,316.867 560.869,313.034 557,309.5C 556.333,308.833 556.333,308.167 557,307.5C 576.961,318.793 598.128,321.627 620.5,316C 627.735,313.485 634.735,310.818 641.5,308C 637.5,312.333 633.5,316.667 629.5,321C 630.5,321.167 631.5,321.333 632.5,321.5C 662.842,317.321 690.842,306.988 716.5,290.5C 734.517,297.346 748.017,309.346 757,326.5C 768.823,351.596 775.323,378.096 776.5,406C 774.804,427.802 773.638,449.635 773,471.5C 769.608,497.684 761.774,522.351 749.5,545.5 Z"/></g>
<g><path style="opacity:1" fill="#8c4091" d="M 290.5,312.5 C 290.196,313.15 289.863,313.817 289.5,314.5C 322.9,315.173 356.233,315.84 389.5,316.5C 365.912,325.952 342.245,335.452 318.5,345C 310.173,349.825 304.173,356.658 300.5,365.5C 286.215,366.466 271.882,366.8 257.5,366.5C 257.5,364.5 257.5,362.5 257.5,360.5C 262.073,340.002 273.073,324.002 290.5,312.5 Z"/></g>
<g><path style="opacity:1" fill="#8c4090" d="M 909.5,313.5 C 927.82,326.143 938.487,343.477 941.5,365.5C 927.006,366.487 912.673,366.821 898.5,366.5C 894.106,356.605 887.106,349.105 877.5,344C 853.062,334.58 828.728,325.08 804.5,315.5C 806.144,315.286 807.644,315.62 809,316.5C 842.777,316.17 876.277,315.17 909.5,313.5 Z"/></g>
<g><path style="opacity:1" fill="#070608" d="M 713.5,403.5 C 706.679,402.345 699.679,402.179 692.5,403C 691.288,404.107 691.621,404.607 693.5,404.5C 713.556,407.613 731.056,415.946 746,429.5C 746.688,430.332 746.521,430.998 745.5,431.5C 738.406,428.415 731.073,426.081 723.5,424.5C 723.928,428.484 724.261,432.484 724.5,436.5C 724.796,446.788 721.463,455.621 714.5,463C 732.024,482.552 742.69,505.385 746.5,531.5C 740.169,519.653 730.169,513.32 716.5,512.5C 716.737,511.209 716.404,510.209 715.5,509.5C 711.198,496.36 703.864,485.194 693.5,476C 691.833,475.333 690.167,475.333 688.5,476C 673.253,481.714 657.587,485.381 641.5,487C 661.589,479.555 678.089,467.388 691,450.5C 693.505,447.181 694.505,443.514 694,439.5C 677.131,412.48 652.631,399.813 620.5,401.5C 617.247,416.008 609.914,428.008 598.5,437.5C 587.698,427.855 580.365,416.021 576.5,402C 543.885,399.721 519.385,412.554 503,440.5C 503.916,446.007 506.249,451.007 510,455.5C 522.882,469.353 538.049,479.853 555.5,487C 540.428,485.7 525.762,482.366 511.5,477C 508.874,476.005 506.207,475.672 503.5,476C 493.068,485.928 485.734,497.761 481.5,511.5C 480.833,511.5 480.5,511.833 480.5,512.5C 466.025,514.981 456.025,522.981 450.5,536.5C 453.236,508.201 464.236,483.701 483.5,463C 478.14,458.781 474.973,453.281 474,446.5C 473.203,439.45 473.37,432.45 474.5,425.5C 472.926,424.369 471.259,424.202 469.5,425C 462.993,426.869 456.66,428.869 450.5,431C 465.425,416.038 483.425,407.204 504.5,404.5C 505.376,404.631 506.043,404.298 506.5,403.5C 498.009,402.179 489.676,402.179 481.5,403.5C 467.698,404.579 455.365,409.246 444.5,417.5C 443.514,413.03 443.181,408.363 443.5,403.5C 443.9,394.331 445.4,385.331 448,376.5C 453.688,359.101 463.355,344.434 477,332.5C 489.449,343.937 503.282,353.437 518.5,361C 532.569,367.516 547.236,371.516 562.5,373C 569.912,368.017 574.745,361.184 577,352.5C 577.749,358.991 577.416,365.324 576,371.5C 582.565,368.178 589.565,366.511 597,366.5C 605.761,367.121 614.261,368.621 622.5,371C 619.812,365.113 618.979,358.946 620,352.5C 622.498,360.996 627.331,367.829 634.5,373C 667.558,368.764 696.224,355.264 720.5,332.5C 725.851,337.018 730.685,342.018 735,347.5C 749.293,369.002 755.626,392.669 754,418.5C 742.15,409.163 728.65,404.163 713.5,403.5 Z"/></g>
<g><path style="opacity:0.004" fill="#000000" d="M 971.5,339.5 C 972.833,340.167 972.833,340.167 971.5,339.5 Z"/></g>
<g><path style="opacity:0.004" fill="#000000" d="M 974.5,348.5 C 975.833,349.167 975.833,349.167 974.5,348.5 Z"/></g>
<g><path style="opacity:1" fill="#f9f9f9" d="M 537.5,383.5 C 538.167,384.167 538.833,384.833 539.5,385.5C 517.019,392.664 494.019,395.331 470.5,393.5C 461.653,385.134 458.819,375.134 462,363.5C 464.346,359.821 467.346,356.821 471,354.5C 491.016,368.92 513.182,378.587 537.5,383.5 Z"/></g>
<g><path style="opacity:1" fill="#f6f6f6" d="M 729.5,354.5 C 737.302,357.571 741.302,363.404 741.5,372C 740.736,380.361 737.403,387.528 731.5,393.5C 707.383,396.044 684.05,393.044 661.5,384.5C 683.305,379.177 703.971,371.01 723.5,360C 725.763,358.383 727.763,356.55 729.5,354.5 Z"/></g>
<g><path style="opacity:0.004" fill="#000000" d="M 220.5,357.5 C 221.833,358.167 221.833,358.167 220.5,357.5 Z"/></g>
<g><path style="opacity:1" fill="#483a76" d="M 519.5,353.5 C 519.56,352.957 519.893,352.624 520.5,352.5C 530.247,356.694 540.247,360.194 550.5,363C 556.685,364.316 562.352,363.149 567.5,359.5C 567.833,359.833 568.167,360.167 568.5,360.5C 565.818,364.507 562.818,368.173 559.5,371.5C 546.115,365.472 532.782,359.472 519.5,353.5 Z"/></g>
<g><path style="opacity:1" fill="#473975" d="M 679.5,352.5 C 680.552,352.351 681.552,352.517 682.5,353C 668.94,359.03 655.44,365.196 642,371.5C 638.263,368.225 635.096,364.392 632.5,360C 635.275,360.374 637.942,361.374 640.5,363C 643.833,363.667 647.167,363.667 650.5,363C 660.44,359.967 670.107,356.467 679.5,352.5 Z"/></g>
<g><path style="opacity:1" fill="#843c8f" d="M 257.5,360.5 C 257.5,362.5 257.5,364.5 257.5,366.5C 271.882,366.8 286.215,366.466 300.5,365.5C 298.939,373.255 299.439,380.921 302,388.5C 313.512,409.527 325.012,430.527 336.5,451.5C 328.783,452.135 320.616,452.469 312,452.5C 303.377,452.408 294.877,451.742 286.5,450.5C 279.679,438.194 272.846,425.86 266,413.5C 256.349,396.775 253.516,379.108 257.5,360.5 Z"/></g>
<g><path style="opacity:1" fill="#843c90" d="M 941.5,365.5 C 943.356,377.308 942.189,388.974 938,400.5C 929.585,418.335 920.418,435.668 910.5,452.5C 895.152,452.833 879.819,452.499 864.5,451.5C 863.873,450.583 863.539,449.583 863.5,448.5C 875.229,427.38 886.729,406.047 898,384.5C 899.779,378.557 899.946,372.557 898.5,366.5C 912.673,366.821 927.006,366.487 941.5,365.5 Z"/></g>
<g><path style="opacity:1" fill="#6f6f6f" d="M 537.5,383.5 C 538.675,383.281 539.675,383.614 540.5,384.5C 540.376,385.107 540.043,385.44 539.5,385.5C 538.833,384.833 538.167,384.167 537.5,383.5 Z"/></g>
<g><path style="opacity:0.004" fill="#000000" d="M 220.5,392.5 C 221.833,393.167 221.833,393.167 220.5,392.5 Z"/></g>
<g><path style="opacity:0.004" fill="#000000" d="M 974.5,401.5 C 975.833,402.167 975.833,402.167 974.5,401.5 Z"/></g>
<g><path style="opacity:1" fill="#635068" d="M 481.5,403.5 C 489.676,402.179 498.009,402.179 506.5,403.5C 506.043,404.298 505.376,404.631 504.5,404.5C 497.018,403.508 489.352,403.175 481.5,403.5 Z"/></g>
<g><path style="opacity:1" fill="#b995c0" d="M 715.5,509.5 C 637.84,511.497 559.84,512.164 481.5,511.5C 485.734,497.761 493.068,485.928 503.5,476C 506.207,475.672 508.874,476.005 511.5,477C 525.762,482.366 540.428,485.7 555.5,487C 538.049,479.853 522.882,469.353 510,455.5C 506.249,451.007 503.916,446.007 503,440.5C 519.385,412.554 543.885,399.721 576.5,402C 580.365,416.021 587.698,427.855 598.5,437.5C 609.914,428.008 617.247,416.008 620.5,401.5C 652.631,399.813 677.131,412.48 694,439.5C 694.505,443.514 693.505,447.181 691,450.5C 678.089,467.388 661.589,479.555 641.5,487C 657.587,485.381 673.253,481.714 688.5,476C 690.167,475.333 691.833,475.333 693.5,476C 703.864,485.194 711.198,496.36 715.5,509.5 Z"/></g>
<g><path style="opacity:1" fill="#6a556f" d="M 713.5,403.5 C 706.646,403.176 699.979,403.509 693.5,404.5C 691.621,404.607 691.288,404.107 692.5,403C 699.679,402.179 706.679,402.345 713.5,403.5 Z"/></g>
<g><path style="opacity:1" fill="#6d5872" d="M 443.5,403.5 C 443.181,408.363 443.514,413.03 444.5,417.5C 444.44,418.043 444.107,418.376 443.5,418.5C 442.186,413.348 442.186,408.348 443.5,403.5 Z"/></g>
<g><path style="opacity:0.004" fill="#000000" d="M 971.5,410.5 C 972.833,411.167 972.833,411.167 971.5,410.5 Z"/></g>
<g><path style="opacity:0.004" fill="#000000" d="M 965.5,423.5 C 966.833,424.167 966.833,424.167 965.5,423.5 Z"/></g>
<g><path style="opacity:1" fill="#070608" d="M 553.5,430.5 C 556.187,430.336 558.854,430.503 561.5,431C 569.217,447.203 581.551,458.37 598.5,464.5C 615.558,458.775 627.891,447.775 635.5,431.5C 645.891,430.525 653.891,434.525 659.5,443.5C 650.492,457.336 638.492,467.836 623.5,475C 622.167,475.667 620.833,475.667 619.5,475C 604.74,466.235 590.073,466.402 575.5,475.5C 560.207,469.38 548.04,459.38 539,445.5C 538.333,444.167 538.333,442.833 539,441.5C 542.951,436.466 547.784,432.799 553.5,430.5 Z"/></g>
<g><path style="opacity:0.004" fill="#000000" d="M 958.5,436.5 C 959.833,437.167 959.833,437.167 958.5,436.5 Z"/></g>
<g><path style="opacity:1" fill="#7e398e" d="M 286.5,450.5 C 294.877,451.742 303.377,452.408 312,452.5C 320.616,452.469 328.783,452.135 336.5,451.5C 345.485,466.798 354.485,482.131 363.5,497.5C 362.867,497.88 362.2,498.213 361.5,498.5C 361.709,499.086 362.043,499.586 362.5,500C 347.5,500.667 332.5,500.667 317.5,500C 316.227,497.201 314.227,495.367 311.5,494.5C 303.167,479.833 294.833,465.167 286.5,450.5 Z"/></g>
<g><path style="opacity:1" fill="#7e398f" d="M 863.5,448.5 C 863.539,449.583 863.873,450.583 864.5,451.5C 879.819,452.499 895.152,452.833 910.5,452.5C 903.53,465.447 896.197,478.114 888.5,490.5C 886.271,487.906 884.105,488.24 882,491.5C 880.795,494.562 879.628,497.562 878.5,500.5C 864.5,500.5 850.5,500.5 836.5,500.5C 836.383,498.516 837.05,496.85 838.5,495.5C 838.137,494.817 837.804,494.15 837.5,493.5C 845.917,478.329 854.584,463.329 863.5,448.5 Z"/></g>
<g><path style="opacity:0.004" fill="#000000" d="M 942.5,465.5 C 943.833,466.167 943.833,466.167 942.5,465.5 Z"/></g>
<g><path style="opacity:0.004" fill="#000000" d="M 933.5,481.5 C 934.833,482.167 934.833,482.167 933.5,481.5 Z"/></g>
<g><path style="opacity:0.004" fill="#000000" d="M 926.5,493.5 C 927.833,494.167 927.833,494.167 926.5,493.5 Z"/></g>
<g><path style="opacity:0.004" fill="#000000" d="M 272.5,494.5 C 271.833,495.167 271.833,495.167 272.5,494.5 Z"/></g>
<g><path style="opacity:1" fill="#78378d" d="M 888.5,490.5 C 877.919,510.004 866.585,529.004 854.5,547.5C 852.436,547.762 851.103,548.929 850.5,551C 835.156,551.833 819.822,551.666 804.5,550.5C 805.791,549.473 805.791,548.473 804.5,547.5C 815.514,529.464 826.514,511.464 837.5,493.5C 837.804,494.15 838.137,494.817 838.5,495.5C 837.05,496.85 836.383,498.516 836.5,500.5C 850.5,500.5 864.5,500.5 878.5,500.5C 879.628,497.562 880.795,494.562 882,491.5C 884.105,488.24 886.271,487.906 888.5,490.5 Z"/></g>
<g><path style="opacity:1" fill="#78378d" d="M 311.5,494.5 C 314.227,495.367 316.227,497.201 317.5,500C 332.5,500.667 347.5,500.667 362.5,500C 362.043,499.586 361.709,499.086 361.5,498.5C 362.2,498.213 362.867,497.88 363.5,497.5C 373.568,514.631 383.901,531.631 394.5,548.5C 394.196,549.15 393.863,549.817 393.5,550.5C 378.167,551.833 362.833,551.833 347.5,550.5C 346.995,549.081 345.995,548.415 344.5,548.5C 333.012,530.87 322.012,512.87 311.5,494.5 Z"/></g>
<g><path style="opacity:1" fill="#9662a3" d="M 715.5,509.5 C 716.404,510.209 716.737,511.209 716.5,512.5C 637.833,512.5 559.167,512.5 480.5,512.5C 480.5,511.833 480.833,511.5 481.5,511.5C 559.84,512.164 637.84,511.497 715.5,509.5 Z"/></g>
<g><path style="opacity:0.995" fill="#5b1171" d="M 480.5,512.5 C 559.167,512.5 637.833,512.5 716.5,512.5C 730.169,513.32 740.169,519.653 746.5,531.5C 748.328,535.985 749.328,540.652 749.5,545.5C 742.85,579.434 736.517,613.434 730.5,647.5C 732.833,647.5 735.167,647.5 737.5,647.5C 754.511,648.342 771.511,649.342 788.5,650.5C 801.13,651.919 813.796,652.919 826.5,653.5C 833.517,654.393 840.517,654.393 847.5,653.5C 855.237,655.393 863.07,656.726 871,657.5C 875.131,656.03 879.131,656.363 883,658.5C 884.923,657.198 886.757,657.365 888.5,659C 901.107,659.709 913.607,661.209 926,663.5C 929.005,662.118 931.672,662.452 934,664.5C 934.725,663.941 935.558,663.608 936.5,663.5C 940.822,664.224 945.155,665.224 949.5,666.5C 951.038,666.327 952.538,665.994 954,665.5C 956.149,667.458 958.482,667.791 961,666.5C 962,667.167 963,667.833 964,668.5C 965.49,667.272 966.99,667.272 968.5,668.5C 968.842,669.338 969.508,669.672 970.5,669.5C 972.752,670.333 974.919,670.333 977,669.5C 986.118,673.958 993.951,680.458 1000.5,689C 1000.17,689.333 999.833,689.667 999.5,690C 1001.41,692.3 1002.74,694.8 1003.5,697.5C 1004.77,700.281 1005.6,702.947 1006,705.5C 1006.67,783.167 1006.67,860.833 1006,938.5C 1005.2,940.797 1004.03,943.297 1002.5,946C 1002.83,946.333 1003.17,946.667 1003.5,947C 1001.42,950.124 999.092,952.957 996.5,955.5C 995.21,956.058 994.377,957.058 994,958.5C 993.667,958.167 993.333,957.833 993,957.5C 990.463,959.432 987.796,961.099 985,962.5C 980.333,961.167 975.667,961.167 971,962.5C 968.388,961.453 965.554,960.12 962.5,958.5C 946.663,952.659 930.663,947.325 914.5,942.5C 911.921,941.507 908.921,940.507 905.5,939.5C 904.328,938.295 902.995,938.295 901.5,939.5C 899.305,938.156 896.638,936.822 893.5,935.5C 892.833,935.833 892.167,936.167 891.5,936.5C 888.997,934.505 886.164,933.171 883,932.5C 881.351,933.898 880.018,933.564 879,931.5C 878.586,931.957 878.086,932.291 877.5,932.5C 875.477,931.46 873.477,930.46 871.5,929.5C 868.925,930.589 866.759,929.923 865,927.5C 864.667,927.833 864.333,928.167 864,928.5C 862.416,927.139 860.582,926.472 858.5,926.5C 854.498,925.495 850.498,924.495 846.5,923.5C 842.078,923.767 837.745,922.6 833.5,920C 831.765,919.349 830.098,919.515 828.5,920.5C 827.803,918.615 826.803,918.282 825.5,919.5C 824.522,919.023 823.689,918.357 823,917.5C 820.792,916.555 818.292,916.555 815.5,917.5C 812.329,916.83 808.996,915.83 805.5,914.5C 803.777,913.193 801.943,913.193 800,914.5C 799.072,912.665 797.906,912.332 796.5,913.5C 792.263,911.883 787.929,910.55 783.5,909.5C 780.179,910.176 777.012,910.176 774,909.5C 770.035,906.673 765.702,906.006 761,907.5C 758.036,907.117 755.37,906.117 753,904.5C 749.036,903.713 744.869,903.713 740.5,904.5C 738.971,904.471 737.804,903.804 737,902.5C 736.586,902.957 736.086,903.291 735.5,903.5C 731.872,901.576 728.205,900.91 724.5,901.5C 713.344,901.271 702.177,899.937 691,897.5C 686.746,898.768 682.746,898.434 679,896.5C 675.23,897.75 671.563,897.417 668,895.5C 666.856,895.911 665.689,896.244 664.5,896.5C 650.745,894.55 636.911,893.55 623,893.5C 602.179,893.93 581.345,894.097 560.5,894C 551.929,894.233 543.429,895.067 535,896.5C 534,896.167 533,895.833 532,895.5C 528.437,897.417 524.77,897.75 521,896.5C 519.604,897.394 518.104,898.061 516.5,898.5C 513.865,897.947 511.199,897.614 508.5,897.5C 497.198,900.131 485.864,901.464 474.5,901.5C 460.388,902.453 446.054,904.453 431.5,907.5C 427.363,908.784 423.363,909.784 419.5,910.5C 413.955,909.777 408.622,910.777 403.5,913.5C 402.094,912.332 400.928,912.665 400,914.5C 398.057,913.193 396.223,913.193 394.5,914.5C 392.371,914.484 390.538,915.151 389,916.5C 387.32,915.397 385.82,915.73 384.5,917.5C 381.579,916.622 378.912,916.622 376.5,917.5C 373.789,919.856 370.789,920.523 367.5,919.5C 364.172,920.83 360.838,922.164 357.5,923.5C 355.684,922.265 354.017,922.265 352.5,923.5C 339.716,927.76 327.383,931.093 315.5,933.5C 308.121,934.72 301.121,936.72 294.5,939.5C 290.86,940.722 287.527,941.722 284.5,942.5C 282.16,943.086 279.993,944.086 278,945.5C 276.984,944.366 276.317,944.699 276,946.5C 274.708,945.209 273.542,945.209 272.5,946.5C 263.496,949.854 254.496,952.854 245.5,955.5C 242.763,957.241 240.096,958.241 237.5,958.5C 234.148,959.008 231.148,960.342 228.5,962.5C 226.591,961.652 224.591,961.318 222.5,961.5C 222.167,961.5 221.833,961.5 221.5,961.5C 218.881,961.232 216.381,961.565 214,962.5C 211.705,962.311 209.705,960.977 208,958.5C 207.667,958.833 207.333,959.167 207,959.5C 203.844,957.343 201.011,954.843 198.5,952C 198.833,951.667 199.167,951.333 199.5,951C 199.198,949.345 197.864,948.012 195.5,947C 196.774,946.023 196.774,945.189 195.5,944.5C 195.617,942.516 194.95,940.85 193.5,939.5C 193.502,861.226 193.502,782.893 193.5,704.5C 195.086,702.827 195.753,700.827 195.5,698.5C 195.478,695.72 196.811,693.22 199.5,691C 199.167,690.667 198.833,690.333 198.5,690C 201.713,685.012 205.88,680.178 211,675.5C 211.333,675.833 211.667,676.167 212,676.5C 215.239,674.425 218.572,672.092 222,669.5C 222.561,670.022 223.228,670.355 224,670.5C 228.779,669.437 233.446,668.103 238,666.5C 242.076,666.09 246.243,666.09 250.5,666.5C 256.316,665.477 262.316,664.144 268.5,662.5C 270.106,663.077 271.772,663.41 273.5,663.5C 283.671,661.095 294.005,659.928 304.5,660C 307.832,659.751 310.999,658.918 314,657.5C 316.834,658.191 319.667,657.857 322.5,656.5C 332.465,657.301 342.299,656.301 352,653.5C 358.153,654.503 364.319,654.503 370.5,653.5C 383.514,652.642 396.514,651.642 409.5,650.5C 426.161,649.227 443.161,648.227 460.5,647.5C 463.127,646.908 465.794,646.575 468.5,646.5C 463.424,615.044 457.59,583.71 451,552.5C 450.501,547.511 450.334,542.511 450.5,537.5C 450.5,537.167 450.5,536.833 450.5,536.5C 456.025,522.981 466.025,514.981 480.5,512.5 Z"/></g>
<g><path style="opacity:1" fill="#050507" d="M 480.5,521.5 C 559.167,521.333 637.834,521.5 716.5,522C 728.848,523.805 736.515,530.638 739.5,542.5C 732.713,580.56 725.713,618.56 718.5,656.5C 802.496,660.818 886.162,668.651 969.5,680C 982.122,682.621 990.289,690.121 994,702.5C 994.667,781.167 994.667,859.833 994,938.5C 992.006,946.664 986.839,950.997 978.5,951.5C 943.663,940.166 908.663,929.332 873.5,919C 654.957,861.899 439.624,872.232 227.5,950C 216.158,953.655 208.658,949.821 205,938.5C 204.333,860.5 204.333,782.5 205,704.5C 210.104,687.402 221.604,678.569 239.5,678C 319.512,667.342 399.845,660.175 480.5,656.5C 473.943,618.824 467.276,581.157 460.5,543.5C 460.974,536.724 463.974,531.224 469.5,527C 473.046,524.717 476.713,522.884 480.5,521.5 Z"/></g>
<g><path style="opacity:1" fill="#5f1675" d="M 512.5,529.5 C 530.167,529.5 547.833,529.5 565.5,529.5C 565.5,560.167 565.5,590.833 565.5,621.5C 572.687,621.825 579.687,621.491 586.5,620.5C 591.556,590.441 596.889,560.441 602.5,530.5C 625.824,529.5 649.157,529.167 672.5,529.5C 681.166,572.832 689.833,616.165 698.5,659.5C 679.83,659.333 661.163,659 642.5,658.5C 642.688,652.112 642.188,645.778 641,639.5C 640.29,638.027 639.124,637.36 637.5,637.5C 636.906,644.175 636.24,650.842 635.5,657.5C 599.167,657.5 562.833,657.5 526.5,657.5C 521.833,657.5 517.167,657.5 512.5,657.5C 512.5,614.833 512.5,572.167 512.5,529.5 Z"/></g>
<g><path style="opacity:1" fill="#fefefe" d="M 519.5,536.5 C 532.5,536.5 545.5,536.5 558.5,536.5C 558.169,567.005 558.502,597.338 559.5,627.5C 567.5,627.5 575.5,627.5 583.5,627.5C 583.5,635.167 583.5,642.833 583.5,650.5C 563.167,650.5 542.833,650.5 522.5,650.5C 521.5,650.5 520.5,650.5 519.5,650.5C 519.5,612.5 519.5,574.5 519.5,536.5 Z"/></g>
<g><path style="opacity:1" fill="#fdfcfd" d="M 689.5,650.5 C 687.721,652.344 685.388,653.01 682.5,652.5C 671.495,652.667 660.495,652.5 649.5,652C 648.592,644.861 647.592,637.695 646.5,630.5C 641.5,630.5 636.5,630.5 631.5,630.5C 631.5,632.833 631.5,635.167 631.5,637.5C 630.291,641.618 629.624,645.951 629.5,650.5C 615.833,650.5 602.167,650.5 588.5,650.5C 588.5,649.5 588.5,648.5 588.5,647.5C 594.963,610.519 601.296,573.519 607.5,536.5C 627.5,536.5 647.5,536.5 667.5,536.5C 674.619,574.545 681.952,612.545 689.5,650.5 Z"/></g>
<g><path style="opacity:1" fill="#72368d" d="M 804.5,547.5 C 805.791,548.473 805.791,549.473 804.5,550.5C 819.822,551.666 835.156,551.833 850.5,551C 851.103,548.929 852.436,547.762 854.5,547.5C 843.664,565.845 832.33,583.845 820.5,601.5C 804.535,602.455 788.535,602.788 772.5,602.5C 773.071,600.64 773.071,598.973 772.5,597.5C 782.78,580.56 793.446,563.893 804.5,547.5 Z"/></g>
<g><path style="opacity:1" fill="#72368d" d="M 344.5,548.5 C 345.995,548.415 346.995,549.081 347.5,550.5C 362.833,551.833 378.167,551.833 393.5,550.5C 393.863,549.817 394.196,549.15 394.5,548.5C 405.237,565.634 416.237,582.634 427.5,599.5C 427.196,600.15 426.863,600.817 426.5,601.5C 411.178,602.666 395.844,602.833 380.5,602C 379.529,600.519 378.196,599.685 376.5,599.5C 365.086,583.013 354.419,566.013 344.5,548.5 Z"/></g>
<g><path style="opacity:0.004" fill="#000000" d="M 888.5,557.5 C 889.833,558.167 889.833,558.167 888.5,557.5 Z"/></g>
<g><path style="opacity:1" fill="#b896c1" d="M 518.5,536.5 C 531.99,535.504 545.656,535.171 559.5,535.5C 559.5,566.167 559.5,596.833 559.5,627.5C 558.502,597.338 558.169,567.005 558.5,536.5C 545.5,536.5 532.5,536.5 519.5,536.5C 519.167,536.5 518.833,536.5 518.5,536.5 Z"/></g>
<g><path style="opacity:1" fill="#1a0621" d="M 565.5,529.5 C 566.498,559.662 566.831,589.995 566.5,620.5C 573.167,620.5 579.833,620.5 586.5,620.5C 579.687,621.491 572.687,621.825 565.5,621.5C 565.5,590.833 565.5,560.167 565.5,529.5 Z"/></g>
<g><path style="opacity:0.004" fill="#000000" d="M 878.5,573.5 C 879.833,574.167 879.833,574.167 878.5,573.5 Z"/></g>
<g><path style="opacity:1" fill="#651e7b" d="M 644.5,605.5 C 644.5,606.833 644.5,608.167 644.5,609.5C 640.5,609.5 636.5,609.5 632.5,609.5C 632.5,607.833 632.5,606.167 632.5,604.5C 634.343,590.784 636.51,577.118 639,563.5C 641.522,577.416 643.356,591.416 644.5,605.5 Z"/></g>
<g><path style="opacity:0.004" fill="#000000" d="M 872.5,583.5 C 873.833,584.167 873.833,584.167 872.5,583.5 Z"/></g>
<g><path style="opacity:1" fill="#6c338c" d="M 772.5,597.5 C 773.071,598.973 773.071,600.64 772.5,602.5C 788.535,602.788 804.535,602.455 820.5,601.5C 810.093,617.976 799.426,634.309 788.5,650.5C 771.511,649.342 754.511,648.342 737.5,647.5C 749.199,630.81 760.866,614.143 772.5,597.5 Z"/></g>
<g><path style="opacity:0.004" fill="#000000" d="M 862.5,599.5 C 863.833,600.167 863.833,600.167 862.5,599.5 Z"/></g>
<g><path style="opacity:1" fill="#6c338c" d="M 376.5,599.5 C 378.196,599.685 379.529,600.519 380.5,602C 395.844,602.833 411.178,602.666 426.5,601.5C 426.863,600.817 427.196,600.15 427.5,599.5C 438.467,615.477 449.467,631.477 460.5,647.5C 443.161,648.227 426.161,649.227 409.5,650.5C 398.24,633.642 387.24,616.642 376.5,599.5 Z"/></g>
<g><path style="opacity:1" fill="#eae0ec" d="M 518.5,536.5 C 518.833,536.5 519.167,536.5 519.5,536.5C 519.5,574.5 519.5,612.5 519.5,650.5C 520.5,650.5 521.5,650.5 522.5,650.5C 521.432,651.434 520.099,651.768 518.5,651.5C 518.5,613.167 518.5,574.833 518.5,536.5 Z"/></g>
<g><path style="opacity:1" fill="#3a0a47" d="M 512.5,529.5 C 512.5,572.167 512.5,614.833 512.5,657.5C 517.167,657.5 521.833,657.5 526.5,657.5C 521.695,658.487 516.695,658.821 511.5,658.5C 511.168,615.33 511.501,572.33 512.5,529.5 Z"/></g>
<g><path style="opacity:1" fill="#8e589d" d="M 632.5,604.5 C 632.5,606.167 632.5,607.833 632.5,609.5C 636.5,609.5 640.5,609.5 644.5,609.5C 644.5,608.167 644.5,606.833 644.5,605.5C 645.451,606.919 645.784,608.585 645.5,610.5C 640.833,610.5 636.167,610.5 631.5,610.5C 631.205,608.265 631.539,606.265 632.5,604.5 Z"/></g>
<g><path style="opacity:0.004" fill="#000000" d="M 843.5,628.5 C 844.833,629.167 844.833,629.167 843.5,628.5 Z"/></g>
<g><path style="opacity:1" fill="#9866a6" d="M 631.5,637.5 C 631.72,642.1 631.054,646.433 629.5,650.5C 629.624,645.951 630.291,641.618 631.5,637.5 Z"/></g>
<g><path style="opacity:1" fill="#925fa1" d="M 588.5,647.5 C 588.5,648.5 588.5,649.5 588.5,650.5C 602.167,650.5 615.833,650.5 629.5,650.5C 615.677,651.496 601.677,651.829 587.5,651.5C 587.232,649.901 587.566,648.568 588.5,647.5 Z"/></g>
<g><path style="opacity:0.004" fill="#000000" d="M 359.5,653.5 C 360.251,652.427 361.251,652.26 362.5,653C 361.552,653.483 360.552,653.649 359.5,653.5 Z"/></g>
<g><path style="opacity:1" fill="#a77db3" d="M 689.5,650.5 C 690.404,651.209 690.737,652.209 690.5,653.5C 687.615,653.806 684.948,653.473 682.5,652.5C 685.388,653.01 687.721,652.344 689.5,650.5 Z"/></g>
<g><path style="opacity:0.004" fill="#000000" d="M 836.5,653.5 C 837.251,652.427 838.251,652.26 839.5,653C 838.552,653.483 837.552,653.649 836.5,653.5 Z"/></g>
<g><path style="opacity:0.004" fill="#000000" d="M 327.5,656.5 C 328.251,655.427 329.251,655.26 330.5,656C 329.552,656.483 328.552,656.649 327.5,656.5 Z"/></g>
<g><path style="opacity:0.004" fill="#000000" d="M 868.5,656.5 C 869.251,655.427 870.251,655.26 871.5,656C 870.552,656.483 869.552,656.649 868.5,656.5 Z"/></g>
<g><path style="opacity:0.004" fill="#000000" d="M 300.5,659.5 C 300.897,658.475 301.563,658.308 302.5,659C 301.906,659.464 301.239,659.631 300.5,659.5 Z"/></g>
<g><path style="opacity:0.004" fill="#000000" d="M 896.5,659.5 C 897.251,658.427 898.251,658.26 899.5,659C 898.552,659.483 897.552,659.649 896.5,659.5 Z"/></g>
<g><path style="opacity:0.004" fill="#000000" d="M 273.5,662.5 C 273.897,661.475 274.563,661.308 275.5,662C 274.906,662.464 274.239,662.631 273.5,662.5 Z"/></g>
<g><path style="opacity:0.004" fill="#000000" d="M 924.5,662.5 C 924.897,661.475 925.563,661.308 926.5,662C 925.906,662.464 925.239,662.631 924.5,662.5 Z"/></g>
<g><path style="opacity:0.004" fill="#000000" d="M 228.5,667.5 C 229.833,668.167 229.833,668.167 228.5,667.5 Z"/></g>
<g><path style="opacity:0.004" fill="#000000" d="M 970.5,669.5 C 969.508,669.672 968.842,669.338 968.5,668.5C 970.838,666.989 971.504,667.323 970.5,669.5 Z"/></g>
<g><path style="opacity:0.004" fill="#000000" d="M 223.5,668.5 C 224.833,669.167 224.833,669.167 223.5,668.5 Z"/></g>
<g><path style="opacity:0.004" fill="#000000" d="M 974.5,668.5 C 975.833,669.167 975.833,669.167 974.5,668.5 Z"/></g>
<g><path style="opacity:1" fill="#460d57" d="M 512.5,676.5 C 520.65,675.507 528.983,675.174 537.5,675.5C 537.5,706.167 537.5,736.833 537.5,767.5C 536.502,737.338 536.169,707.005 536.5,676.5C 528.5,676.5 520.5,676.5 512.5,676.5 Z"/></g>
<g><path style="opacity:1" fill="#5e1574" d="M 735.5,754.5 C 735.5,730.167 735.5,705.833 735.5,681.5C 737.833,681.5 740.167,681.5 742.5,681.5C 754.167,682.167 765.833,682.833 777.5,683.5C 777.334,692.173 777.5,700.84 778,709.5C 782.933,695.566 792.766,688.066 807.5,687C 853.223,687.252 871.89,710.086 863.5,755.5C 849.455,753.779 835.455,751.779 821.5,749.5C 820.668,741.521 820.168,733.521 820,725.5C 819.5,736.828 819.333,748.162 819.5,759.5C 819.031,768.336 819.531,777.003 821,785.5C 821.5,776.173 821.666,766.839 821.5,757.5C 823.167,757.5 824.833,757.5 826.5,757.5C 839.202,759.284 851.869,761.284 864.5,763.5C 864.334,767.846 864.501,772.179 865,776.5C 865.696,773.522 866.196,770.522 866.5,767.5C 868.947,743.476 871.614,719.476 874.5,695.5C 900.216,698.412 925.716,702.412 951,707.5C 958.501,771.173 966.001,834.84 973.5,898.5C 973.167,899.5 972.833,900.5 972.5,901.5C 955.636,896.034 938.636,891.034 921.5,886.5C 919.573,877.94 918.407,869.273 918,860.5C 915.165,859.58 912.332,858.58 909.5,857.5C 908.433,865.837 907.433,874.17 906.5,882.5C 888.905,878.815 871.405,874.815 854,870.5C 856.072,850.847 858.072,831.18 860,811.5C 852.591,820.283 843.091,824.283 831.5,823.5C 812.53,824.094 796.697,817.427 784,803.5C 781.894,800.392 780.228,797.059 779,793.5C 778.5,800.492 778.334,807.492 778.5,814.5C 741.239,810.32 703.906,806.986 666.5,804.5C 666.666,798.158 666.5,791.825 666,785.5C 661.383,794.765 653.883,800.265 643.5,802C 623.157,802.67 602.824,802.503 582.5,801.5C 582.666,791.161 582.5,780.828 582,770.5C 581.495,772.518 580.995,774.518 580.5,776.5C 578.2,786.919 572.2,794.419 562.5,799C 546.253,804.489 529.92,804.823 513.5,800C 502.563,794.959 496.397,786.459 495,774.5C 494.667,764.833 494.333,755.167 494,745.5C 490.285,751.444 485.118,755.611 478.5,758C 471.055,759.802 463.555,760.969 456,761.5C 456.143,776.905 455.31,792.072 453.5,807C 415.314,810.076 377.314,814.576 339.5,820.5C 339.667,800.497 339.5,780.497 339,760.5C 336.92,765.666 334.087,770.333 330.5,774.5C 334.622,779.015 337.122,784.348 338,790.5C 338.404,815.169 338.237,839.836 337.5,864.5C 319.501,867.7 301.501,871.033 283.5,874.5C 283.833,849.491 283.5,824.491 282.5,799.5C 281.5,824.825 281.167,850.158 281.5,875.5C 263.494,879.834 245.494,884.168 227.5,888.5C 227.333,826.832 227.5,765.166 228,703.5C 256.206,697.662 284.706,694.162 313.5,693C 326.767,695.104 335.1,702.604 338.5,715.5C 338.709,716.922 339.209,718.255 340,719.5C 340.5,709.172 340.666,698.839 340.5,688.5C 379.377,683.536 418.544,680.203 458,678.5C 472.439,676.398 484.439,680.732 494,691.5C 494.499,686.511 494.666,681.511 494.5,676.5C 500.5,676.5 506.5,676.5 512.5,676.5C 520.5,676.5 528.5,676.5 536.5,676.5C 536.169,707.005 536.502,737.338 537.5,767.5C 538.417,767.506 538.917,766.506 539,764.5C 539.5,734.835 539.667,705.169 539.5,675.5C 571.835,675.333 604.168,675.5 636.5,676C 646.965,676.817 655.799,680.984 663,688.5C 664,690.5 665,692.5 666,694.5C 666.499,688.843 666.666,683.176 666.5,677.5C 681.102,677.205 695.602,677.872 710,679.5C 710.5,710.165 710.667,740.832 710.5,771.5C 718.799,772.527 727.132,773.194 735.5,773.5C 735.5,767.167 735.5,760.833 735.5,754.5 Z"/></g>
<g><path style="opacity:1" fill="#fdfdfd" d="M 589.5,682.5 C 605.837,682.333 622.17,682.5 638.5,683C 644.252,683.876 649.585,685.876 654.5,689C 657.491,691.99 659.657,695.49 661,699.5C 661.667,706.833 661.667,714.167 661,721.5C 658.678,727.917 654.178,731.917 647.5,733.5C 651.219,735.019 654.553,737.019 657.5,739.5C 635.005,739.947 612.339,739.947 589.5,739.5C 589.5,720.5 589.5,701.5 589.5,682.5 Z"/></g>
<g><path style="opacity:1" fill="#fdfcfd" d="M 530.5,740.5 C 520.833,740.5 511.167,740.5 501.5,740.5C 501.5,721.5 501.5,702.5 501.5,683.5C 510.986,682.506 520.652,682.173 530.5,682.5C 530.5,701.833 530.5,721.167 530.5,740.5 Z"/></g>
<g><path style="opacity:1" fill="#fefefe" d="M 676.5,684.5 C 679.833,684.5 683.167,684.5 686.5,684.5C 691.64,685.488 696.974,685.821 702.5,685.5C 702.5,704.833 702.5,724.167 702.5,743.5C 692.835,743.122 683.169,742.789 673.5,742.5C 673.5,723.167 673.5,703.833 673.5,684.5C 674.5,684.5 675.5,684.5 676.5,684.5 Z"/></g>
<g><path style="opacity:1" fill="#fdfcfd" d="M 488.5,741.5 C 467.152,742.612 445.818,743.946 424.5,745.5C 423.167,745.5 421.833,745.5 420.5,745.5C 420.5,726.167 420.5,706.833 420.5,687.5C 434.66,686.674 448.827,685.674 463,684.5C 473.296,684.483 481.962,688.149 489,695.5C 490.725,698.674 492.058,702.007 493,705.5C 493.667,713.167 493.667,720.833 493,728.5C 492.387,733.172 490.887,737.506 488.5,741.5 Z"/></g>
<g><path style="opacity:1" fill="#fefefe" d="M 742.5,688.5 C 752.01,688.804 761.343,689.47 770.5,690.5C 770.5,710.167 770.5,729.833 770.5,749.5C 761.194,748.502 751.861,747.836 742.5,747.5C 742.5,727.833 742.5,708.167 742.5,688.5 Z"/></g>
<g><path style="opacity:1" fill="#fdfcfd" d="M 397.5,689.5 C 400.5,689.5 403.5,689.5 406.5,689.5C 406.5,696.5 406.5,703.5 406.5,710.5C 405.209,710.263 404.209,710.596 403.5,711.5C 394.822,712.034 386.156,712.701 377.5,713.5C 377.5,721.167 377.5,728.833 377.5,736.5C 385.804,735.503 394.137,734.836 402.5,734.5C 403.5,734.5 404.5,734.5 405.5,734.5C 405.5,738.833 405.5,743.167 405.5,747.5C 385.841,749.499 366.174,751.499 346.5,753.5C 346.5,751.5 346.5,749.5 346.5,747.5C 346.5,742.5 346.5,737.5 346.5,732.5C 347.495,720.011 347.829,707.344 347.5,694.5C 348.791,694.737 349.791,694.404 350.5,693.5C 366.095,691.454 381.762,690.121 397.5,689.5 Z"/></g>
<g><path style="opacity:1" fill="#e3d5e6" d="M 397.5,689.5 C 400.625,688.521 403.958,688.187 407.5,688.5C 407.5,696.167 407.5,703.833 407.5,711.5C 406.167,711.5 404.833,711.5 403.5,711.5C 404.209,710.596 405.209,710.263 406.5,710.5C 406.5,703.5 406.5,696.5 406.5,689.5C 403.5,689.5 400.5,689.5 397.5,689.5 Z"/></g>
<g><path style="opacity:1" fill="#fcfbfc" d="M 813.5,722.5 C 812.506,732.987 812.172,743.654 812.5,754.5C 802.858,753.281 793.191,752.281 783.5,751.5C 783.053,737.427 783.553,723.427 785,709.5C 788.429,701.071 794.596,695.904 803.5,694C 822.282,691.312 838.449,696.478 852,709.5C 853.711,711.956 855.044,714.623 856,717.5C 857.395,727.434 857.895,737.434 857.5,747.5C 847.502,746.5 837.502,745.5 827.5,744.5C 827.666,737.825 827.5,731.158 827,724.5C 824.983,719.076 821.15,717.242 815.5,719C 814.177,719.816 813.511,720.983 813.5,722.5 Z"/></g>
<g><path style="opacity:0.004" fill="#000000" d="M 1003.5,696.5 C 1004.83,697.167 1004.83,697.167 1003.5,696.5 Z"/></g>
<g><path style="opacity:0.004" fill="#000000" d="M 195.5,698.5 C 194.833,697.167 194.833,697.167 195.5,698.5 Z"/></g>
<g><path style="opacity:1" fill="#fdfdfd" d="M 332.5,756.5 C 320.063,757.359 307.73,759.025 295.5,761.5C 293.955,761.489 292.622,761.156 291.5,760.5C 294.296,753.094 295.129,745.427 294,737.5C 289.112,732.593 283.279,731.259 276.5,733.5C 275.833,743.674 275.167,754.008 274.5,764.5C 261.148,766.688 247.814,769.021 234.5,771.5C 234.5,750.5 234.5,729.5 234.5,708.5C 244.462,706.948 254.462,705.615 264.5,704.5C 269.731,704.556 274.731,703.889 279.5,702.5C 290.657,699.868 301.99,699.035 313.5,700C 326.213,702.537 333.046,710.371 334,723.5C 335.015,734.614 334.515,745.614 332.5,756.5 Z"/></g>
<g><path style="opacity:1" fill="#d5c1db" d="M 279.5,702.5 C 274.731,703.889 269.731,704.556 264.5,704.5C 269.269,703.111 274.269,702.444 279.5,702.5 Z"/></g>
<g><path style="opacity:1" fill="#fdfcfd" d="M 945.5,721.5 C 945.444,726.731 946.111,731.731 947.5,736.5C 948.324,739.764 948.658,743.098 948.5,746.5C 948.444,751.731 949.111,756.731 950.5,761.5C 951.244,765.119 951.577,768.785 951.5,772.5C 951.5,774.167 951.5,775.833 951.5,777.5C 939.75,775.487 928.083,773.153 916.5,770.5C 915.944,760.155 915.277,749.822 914.5,739.5C 913.167,739.5 911.833,739.5 910.5,739.5C 909.977,749.562 909.31,759.562 908.5,769.5C 897.609,767.158 886.609,765.325 875.5,764C 874.594,762.301 874.261,760.467 874.5,758.5C 875.843,740.414 877.843,722.414 880.5,704.5C 881.667,704.167 882.833,703.833 884,703.5C 903.262,705.627 922.429,708.46 941.5,712C 943.061,712.318 944.228,713.151 945,714.5C 945.497,716.81 945.663,719.143 945.5,721.5 Z"/></g>
<g><path style="opacity:1" fill="#5e1474" d="M 458.5,707.5 C 460.752,707.916 462.252,709.249 463,711.5C 463.667,716.5 463.667,721.5 463,726.5C 461.943,730.391 459.443,732.724 455.5,733.5C 453.833,733.5 452.167,733.5 450.5,733.5C 450.5,724.833 450.5,716.167 450.5,707.5C 453.167,707.5 455.833,707.5 458.5,707.5 Z"/></g>
<g><path style="opacity:1" fill="#651d7b" d="M 618.5,699.5 C 628.695,697.404 633.028,701.404 631.5,711.5C 633.926,722.65 629.593,727.317 618.5,725.5C 618.5,716.833 618.5,708.167 618.5,699.5 Z"/></g>
<g><path style="opacity:1" fill="#22082b" d="M 340.5,688.5 C 340.666,698.839 340.5,709.172 340,719.5C 339.209,718.255 338.709,716.922 338.5,715.5C 339.167,706.5 339.833,697.5 340.5,688.5 Z"/></g>
<g><path style="opacity:1" fill="#834794" d="M 458.5,707.5 C 455.833,707.5 453.167,707.5 450.5,707.5C 450.5,716.167 450.5,724.833 450.5,733.5C 452.167,733.5 453.833,733.5 455.5,733.5C 453.735,734.461 451.735,734.795 449.5,734.5C 449.5,725.167 449.5,715.833 449.5,706.5C 452.713,706.19 455.713,706.523 458.5,707.5 Z"/></g>
<g><path style="opacity:1" fill="#c8b5cf" d="M 574.5,772.5 C 574.5,761.5 574.5,750.5 574.5,739.5C 574.5,720.5 574.5,701.5 574.5,682.5C 565.167,682.5 555.833,682.5 546.5,682.5C 546.5,701.5 546.5,720.5 546.5,739.5C 546.827,748.682 546.493,757.682 545.5,766.5C 545.5,738.167 545.5,709.833 545.5,681.5C 555.5,681.5 565.5,681.5 575.5,681.5C 575.831,712.005 575.498,742.338 574.5,772.5 Z"/></g>
<g><path style="opacity:1" fill="#fefefe" d="M 574.5,739.5 C 565.167,739.5 555.833,739.5 546.5,739.5C 546.5,720.5 546.5,701.5 546.5,682.5C 555.833,682.5 565.167,682.5 574.5,682.5C 574.5,701.5 574.5,720.5 574.5,739.5 Z"/></g>
<g><path style="opacity:1" fill="#a074ad" d="M 676.5,684.5 C 675.5,684.5 674.5,684.5 673.5,684.5C 673.5,703.833 673.5,723.167 673.5,742.5C 673.5,749.167 673.5,755.833 673.5,762.5C 672.502,736.339 672.169,710.005 672.5,683.5C 674.099,683.232 675.432,683.566 676.5,684.5 Z"/></g>
<g><path style="opacity:1" fill="#040306" d="M 412.5,717.5 C 412.5,720.5 412.5,723.5 412.5,726.5C 410.265,726.205 408.265,726.539 406.5,727.5C 400.819,727.635 395.152,727.968 389.5,728.5C 387.833,728.5 386.167,728.5 384.5,728.5C 384.5,725.5 384.5,722.5 384.5,719.5C 393.833,718.833 403.167,718.167 412.5,717.5 Z"/></g>
<g><path style="opacity:1" fill="#e1d3e5" d="M 686.5,684.5 C 692.167,684.5 697.833,684.5 703.5,684.5C 703.5,704.167 703.5,723.833 703.5,743.5C 703.167,743.5 702.833,743.5 702.5,743.5C 702.5,724.167 702.5,704.833 702.5,685.5C 696.974,685.821 691.64,685.488 686.5,684.5 Z"/></g>
<g><path style="opacity:1" fill="#200728" d="M 742.5,681.5 C 740.167,681.5 737.833,681.5 735.5,681.5C 735.5,705.833 735.5,730.167 735.5,754.5C 734.502,730.006 734.169,705.339 734.5,680.5C 737.385,680.194 740.052,680.527 742.5,681.5 Z"/></g>
<g><path style="opacity:1" fill="#320a3f" d="M 384.5,719.5 C 384.5,722.5 384.5,725.5 384.5,728.5C 386.167,728.5 387.833,728.5 389.5,728.5C 387.735,729.461 385.735,729.795 383.5,729.5C 383.187,725.958 383.521,722.625 384.5,719.5 Z"/></g>
<g><path style="opacity:1" fill="#decee2" d="M 350.5,693.5 C 349.791,694.404 348.791,694.737 347.5,694.5C 347.829,707.344 347.495,720.011 346.5,732.5C 346.5,719.5 346.5,706.5 346.5,693.5C 347.833,693.5 349.167,693.5 350.5,693.5 Z"/></g>
<g><path style="opacity:1" fill="#0c030f" d="M 665.5,726.5 C 666.647,730.646 666.814,734.98 666,739.5C 664.692,737.359 663.192,735.359 661.5,733.5C 663.616,731.6 664.949,729.267 665.5,726.5 Z"/></g>
<g><path style="opacity:1" fill="#e5dae8" d="M 420.5,687.5 C 420.5,706.833 420.5,726.167 420.5,745.5C 421.833,745.5 423.167,745.5 424.5,745.5C 423.081,746.451 421.415,746.784 419.5,746.5C 419.17,726.66 419.503,706.993 420.5,687.5 Z"/></g>
<g><path style="opacity:1" fill="#601876" d="M 291.5,760.5 C 286.92,763.043 281.92,764.377 276.5,764.5C 276.5,754.167 276.5,743.833 276.5,733.5C 283.279,731.259 289.112,732.593 294,737.5C 295.129,745.427 294.296,753.094 291.5,760.5 Z"/></g>
<g><path style="opacity:1" fill="#ceb6d4" d="M 945.5,721.5 C 946.889,726.269 947.556,731.269 947.5,736.5C 946.111,731.731 945.444,726.731 945.5,721.5 Z"/></g>
<g><path style="opacity:1" fill="#a67fb2" d="M 402.5,734.5 C 403.568,733.566 404.901,733.232 406.5,733.5C 406.825,741.019 406.492,748.352 405.5,755.5C 405.5,752.833 405.5,750.167 405.5,747.5C 405.5,743.167 405.5,738.833 405.5,734.5C 404.5,734.5 403.5,734.5 402.5,734.5 Z"/></g>
<g><path style="opacity:1" fill="#4b0d5d" d="M 412.5,717.5 C 413.833,736.5 413.833,755.5 412.5,774.5C 412.5,770.5 412.5,766.5 412.5,762.5C 411.167,762.5 409.833,762.5 408.5,762.5C 409.209,761.596 410.209,761.263 411.5,761.5C 411.5,750.167 411.5,738.833 411.5,727.5C 409.833,727.5 408.167,727.5 406.5,727.5C 408.265,726.539 410.265,726.205 412.5,726.5C 412.5,723.5 412.5,720.5 412.5,717.5 Z"/></g>
<g><path style="opacity:1" fill="#c1c0c7" d="M 501.5,683.5 C 501.5,702.5 501.5,721.5 501.5,740.5C 511.167,740.5 520.833,740.5 530.5,740.5C 530.071,751.245 530.571,761.912 532,772.5C 537.056,776.654 541.39,775.987 545,770.5C 545.49,769.207 545.657,767.873 545.5,766.5C 546.493,757.682 546.827,748.682 546.5,739.5C 555.833,739.5 565.167,739.5 574.5,739.5C 574.5,750.5 574.5,761.5 574.5,772.5C 571.455,786.371 562.788,794.205 548.5,796C 538.448,796.865 528.448,796.531 518.5,795C 507.459,791.1 501.626,783.267 501,771.5C 500.17,741.997 500.336,712.664 501.5,683.5 Z"/></g>
<g><path style="opacity:1" fill="#07030a" d="M 282.5,739.5 C 284.167,739.5 285.833,739.5 287.5,739.5C 287.666,744.179 287.499,748.845 287,753.5C 286.411,755.863 284.911,756.863 282.5,756.5C 282.5,750.833 282.5,745.167 282.5,739.5 Z"/></g>
<g><path style="opacity:1" fill="#beaec5" d="M 589.5,682.5 C 589.5,701.5 589.5,720.5 589.5,739.5C 589.5,757.833 589.5,776.167 589.5,794.5C 593.371,794.185 597.038,794.518 600.5,795.5C 596.5,795.5 592.5,795.5 588.5,795.5C 588.168,757.663 588.502,719.996 589.5,682.5 Z"/></g>
<g><path style="opacity:1" fill="#c2c2c7" d="M 589.5,739.5 C 612.339,739.947 635.005,739.947 657.5,739.5C 660.607,742.04 662.44,745.373 663,749.5C 663.824,759.212 663.491,768.879 662,778.5C 657.828,789.843 649.661,795.676 637.5,796C 625.181,795.821 612.847,795.654 600.5,795.5C 597.038,794.518 593.371,794.185 589.5,794.5C 589.5,776.167 589.5,757.833 589.5,739.5 Z"/></g>
<g><path style="opacity:1" fill="#c2c2c7" d="M 488.5,741.5 C 482.984,749.264 475.318,753.431 465.5,754C 460.177,754.499 454.844,754.666 449.5,754.5C 449.5,769.833 449.5,785.167 449.5,800.5C 439.486,801.38 429.486,802.38 419.5,803.5C 419.5,784.5 419.5,765.5 419.5,746.5C 421.415,746.784 423.081,746.451 424.5,745.5C 445.818,743.946 467.152,742.612 488.5,741.5 Z"/></g>
<g><path style="opacity:1" fill="#5f1475" d="M 627.5,743.5 C 629.716,744.203 631.549,745.536 633,747.5C 633.667,755.167 633.667,762.833 633,770.5C 632.535,771.931 631.701,773.097 630.5,774C 626.94,775.237 623.273,775.737 619.5,775.5C 619.5,764.833 619.5,754.167 619.5,743.5C 622.167,743.5 624.833,743.5 627.5,743.5 Z"/></g>
<g><path style="opacity:1" fill="#c2c1c7" d="M 673.5,742.5 C 683.169,742.789 692.835,743.122 702.5,743.5C 702.833,743.5 703.167,743.5 703.5,743.5C 703.333,754.838 703.5,766.172 704,777.5C 714.426,778.766 724.926,779.766 735.5,780.5C 735.5,788.167 735.5,795.833 735.5,803.5C 714.869,801.426 694.203,799.759 673.5,798.5C 673.5,786.5 673.5,774.5 673.5,762.5C 673.5,755.833 673.5,749.167 673.5,742.5 Z"/></g>
<g><path style="opacity:1" fill="#7b408c" d="M 627.5,743.5 C 624.833,743.5 622.167,743.5 619.5,743.5C 619.5,754.167 619.5,764.833 619.5,775.5C 618.505,764.679 618.172,753.679 618.5,742.5C 621.713,742.19 624.713,742.523 627.5,743.5 Z"/></g>
<g><path style="opacity:1" fill="#c0bcc5" d="M 742.5,688.5 C 742.5,708.167 742.5,727.833 742.5,747.5C 751.861,747.836 761.194,748.502 770.5,749.5C 770.5,729.833 770.5,710.167 770.5,690.5C 771.499,729.33 771.832,768.33 771.5,807.5C 761.575,806.565 751.741,805.231 742,803.5C 741.169,764.998 741.336,726.664 742.5,688.5 Z"/></g>
<g><path style="opacity:1" fill="#220b29" d="M 625.5,749.5 C 626.117,749.611 626.617,749.944 627,750.5C 627.83,756.528 627.664,762.528 626.5,768.5C 625.504,762.202 625.17,755.868 625.5,749.5 Z"/></g>
<g><path style="opacity:1" fill="#c2c1c7" d="M 405.5,747.5 C 405.5,750.167 405.5,752.833 405.5,755.5C 396.343,756.822 387.009,757.822 377.5,758.5C 377.5,767.5 377.5,776.5 377.5,785.5C 386.436,784.005 395.436,783.005 404.5,782.5C 405.833,782.5 407.167,782.5 408.5,782.5C 408.5,789.833 408.5,797.167 408.5,804.5C 388.528,807.032 368.528,809.699 348.5,812.5C 346.512,793.195 345.846,773.528 346.5,753.5C 366.174,751.499 385.841,749.499 405.5,747.5 Z"/></g>
<g><path style="opacity:1" fill="#c2c1c7" d="M 813.5,722.5 C 813.333,743.503 813.5,764.503 814,785.5C 816.117,792.537 820.284,794.203 826.5,790.5C 827.471,781.888 827.804,773.221 827.5,764.5C 837.852,765.726 848.185,767.059 858.5,768.5C 858.666,778.506 858.5,788.506 858,798.5C 856.167,808.333 850.333,814.167 840.5,816C 794.248,818.904 775.248,797.404 783.5,751.5C 793.191,752.281 802.858,753.281 812.5,754.5C 812.172,743.654 812.506,732.987 813.5,722.5 Z"/></g>
<g><path style="opacity:1" fill="#cbb1d1" d="M 948.5,746.5 C 950.031,751.25 950.698,756.25 950.5,761.5C 949.111,756.731 948.444,751.731 948.5,746.5 Z"/></g>
<g><path style="opacity:1" fill="#c2c1c7" d="M 276.5,733.5 C 276.5,743.833 276.5,754.167 276.5,764.5C 281.92,764.377 286.92,763.043 291.5,760.5C 292.622,761.156 293.955,761.489 295.5,761.5C 307.73,759.025 320.063,757.359 332.5,756.5C 329.94,765.569 324.273,772.069 315.5,776C 323.356,776.858 328.522,781.025 331,788.5C 331.937,811.87 331.604,835.203 330,858.5C 317.909,861.063 305.742,863.396 293.5,865.5C 291.836,843.018 290.836,820.352 290.5,797.5C 290.489,795.983 289.823,794.816 288.5,794C 284.179,793.501 279.846,793.334 275.5,793.5C 275.5,819.167 275.5,844.833 275.5,870.5C 262.077,873.085 248.744,876.085 235.5,879.5C 234.502,852.005 234.169,824.338 234.5,796.5C 234.5,788.167 234.5,779.833 234.5,771.5C 247.814,769.021 261.148,766.688 274.5,764.5C 275.167,754.008 275.833,743.674 276.5,733.5 Z"/></g>
<g><path style="opacity:1" fill="#060308" d="M 408.5,762.5 C 409.833,762.5 411.167,762.5 412.5,762.5C 412.5,766.5 412.5,770.5 412.5,774.5C 402.891,775.884 393.225,776.884 383.5,777.5C 383.5,773.167 383.5,768.833 383.5,764.5C 391.804,763.503 400.137,762.836 408.5,762.5 Z"/></g>
<g><path style="opacity:1" fill="#270931" d="M 826.5,757.5 C 824.833,757.5 823.167,757.5 821.5,757.5C 821.666,766.839 821.5,776.173 821,785.5C 819.531,777.003 819.031,768.336 819.5,759.5C 820.404,758.791 820.737,757.791 820.5,756.5C 822.735,756.205 824.735,756.539 826.5,757.5 Z"/></g>
<g><path style="opacity:1" fill="#bfbcc4" d="M 874.5,758.5 C 874.261,760.467 874.594,762.301 875.5,764C 886.609,765.325 897.609,767.158 908.5,769.5C 908.295,779.349 907.628,789.016 906.5,798.5C 906.827,794.307 905.827,790.474 903.5,787C 904.419,782.219 904.752,777.385 904.5,772.5C 900.821,772.637 897.321,771.971 894,770.5C 893.667,770.833 893.333,771.167 893,771.5C 888,770.167 883,768.833 878,767.5C 877.667,767.833 877.333,768.167 877,768.5C 872.965,799.399 869.132,830.733 865.5,862.5C 876.204,864.502 886.87,866.502 897.5,868.5C 897.574,861.426 898.241,854.426 899.5,847.5C 903.122,846.341 906.789,846.175 910.5,847C 915.869,847.919 921.036,849.419 926,851.5C 926.333,851.167 926.667,850.833 927,850.5C 928.704,859.413 929.871,868.413 930.5,877.5C 940.753,880.008 950.753,883.008 960.5,886.5C 960.833,886 961.167,885.5 961.5,885C 956.979,855.642 953.479,826.142 951,796.5C 950.427,791.356 949.26,786.356 947.5,781.5C 946.522,781.023 945.689,780.357 945,779.5C 944.107,780.081 943.107,780.415 942,780.5C 936.504,779.236 931.17,777.569 926,775.5C 924.355,775.693 922.521,775.86 920.5,776C 922.376,792.904 923.376,809.737 923.5,826.5C 916.482,825.718 909.482,824.718 902.5,823.5C 902.172,818.125 902.505,812.792 903.5,807.5C 904.318,810.107 904.818,812.774 905,815.5C 905.191,813.292 905.691,811.292 906.5,809.5C 906.5,812.833 906.5,816.167 906.5,819.5C 909.789,820.374 913.123,821.041 916.5,821.5C 917.568,822.434 918.901,822.768 920.5,822.5C 920.795,820.265 920.461,818.265 919.5,816.5C 919.068,801.117 918.068,785.783 916.5,770.5C 928.083,773.153 939.75,775.487 951.5,777.5C 951.5,775.833 951.5,774.167 951.5,772.5C 957.029,811.919 961.696,851.586 965.5,891.5C 952.459,888.323 939.459,884.99 926.5,881.5C 925.341,873.544 924.508,865.544 924,857.5C 923.751,856.376 923.251,855.376 922.5,854.5C 915.808,852.83 909.142,851.163 902.5,849.5C 902.261,857.936 901.428,866.269 900,874.5C 887.351,871.392 874.684,868.392 862,865.5C 864.785,829.558 868.952,793.891 874.5,758.5 Z"/></g>
<g><path style="opacity:1" fill="#25082e" d="M 864.5,763.5 C 865.167,764.833 865.833,766.167 866.5,767.5C 866.196,770.522 865.696,773.522 865,776.5C 864.501,772.179 864.334,767.846 864.5,763.5 Z"/></g>
<g><path style="opacity:1" fill="#c2c2c7" d="M 906.5,798.5 C 906.5,802.167 906.5,805.833 906.5,809.5C 905.691,811.292 905.191,813.292 905,815.5C 904.818,812.774 904.318,810.107 903.5,807.5C 902.505,812.792 902.172,818.125 902.5,823.5C 909.482,824.718 916.482,825.718 923.5,826.5C 923.376,809.737 922.376,792.904 920.5,776C 922.521,775.86 924.355,775.693 926,775.5C 931.17,777.569 936.504,779.236 942,780.5C 943.107,780.415 944.107,780.081 945,779.5C 945.689,780.357 946.522,781.023 947.5,781.5C 949.26,786.356 950.427,791.356 951,796.5C 953.479,826.142 956.979,855.642 961.5,885C 961.167,885.5 960.833,886 960.5,886.5C 950.753,883.008 940.753,880.008 930.5,877.5C 929.871,868.413 928.704,859.413 927,850.5C 926.667,850.833 926.333,851.167 926,851.5C 921.036,849.419 915.869,847.919 910.5,847C 906.789,846.175 903.122,846.341 899.5,847.5C 898.241,854.426 897.574,861.426 897.5,868.5C 886.87,866.502 876.204,864.502 865.5,862.5C 869.132,830.733 872.965,799.399 877,768.5C 877.333,768.167 877.667,767.833 878,767.5C 883,768.833 888,770.167 893,771.5C 893.333,771.167 893.667,770.833 894,770.5C 897.321,771.971 900.821,772.637 904.5,772.5C 904.752,777.385 904.419,782.219 903.5,787C 905.827,790.474 906.827,794.307 906.5,798.5 Z"/></g>
<g><path style="opacity:1" fill="#2b0936" d="M 582.5,801.5 C 581.833,793.167 581.167,784.833 580.5,776.5C 580.995,774.518 581.495,772.518 582,770.5C 582.5,780.828 582.666,791.161 582.5,801.5 Z"/></g>
<g><path style="opacity:1" fill="#875696" d="M 346.5,747.5 C 346.5,749.5 346.5,751.5 346.5,753.5C 345.846,773.528 346.512,793.195 348.5,812.5C 347.791,813.404 346.791,813.737 345.5,813.5C 345.169,791.327 345.503,769.327 346.5,747.5 Z"/></g>
<g><path style="opacity:1" fill="#631a79" d="M 916.5,770.5 C 918.068,785.783 919.068,801.117 919.5,816.5C 919.5,818.167 919.5,819.833 919.5,821.5C 918.5,821.5 917.5,821.5 916.5,821.5C 913.123,821.041 909.789,820.374 906.5,819.5C 906.5,816.167 906.5,812.833 906.5,809.5C 906.5,805.833 906.5,802.167 906.5,798.5C 907.628,789.016 908.295,779.349 908.5,769.5C 909.31,759.562 909.977,749.562 910.5,739.5C 911.833,739.5 913.167,739.5 914.5,739.5C 915.277,749.822 915.944,760.155 916.5,770.5 Z"/></g>
<g><path style="opacity:1" fill="#9773a4" d="M 404.5,782.5 C 405.919,781.549 407.585,781.216 409.5,781.5C 409.825,789.352 409.492,797.018 408.5,804.5C 408.5,797.167 408.5,789.833 408.5,782.5C 407.167,782.5 405.833,782.5 404.5,782.5 Z"/></g>
<g><path style="opacity:1" fill="#ececec" d="M 582.5,822.5 C 571.679,821.505 560.679,821.172 549.5,821.5C 549.5,826.5 549.5,831.5 549.5,836.5C 548.116,837.801 546.616,837.801 545,836.5C 544.191,830.251 544.358,824.084 545.5,818C 558.5,817.333 571.5,817.333 584.5,818C 588.213,819.691 589.379,822.525 588,826.5C 587.097,827.701 585.931,828.535 584.5,829C 574.833,829.667 565.167,829.667 555.5,829C 554.273,827.413 554.606,826.079 556.5,825C 565.518,824.832 574.518,824.332 583.5,823.5C 583.376,822.893 583.043,822.56 582.5,822.5 Z"/></g>
<g><path style="opacity:1" fill="#e8e8e8" d="M 504.5,818.5 C 514.5,818.5 524.5,818.5 534.5,818.5C 534.67,819.822 534.337,820.989 533.5,822C 520.818,822.39 508.152,823.056 495.5,824C 494.663,825.011 494.33,826.178 494.5,827.5C 506.461,826.003 518.461,825.503 530.5,826C 534.292,828.053 535.458,831.219 534,835.5C 532.581,836.46 531.081,837.293 529.5,838C 516.168,838.611 502.835,839.111 489.5,839.5C 489.33,838.178 489.663,837.011 490.5,836C 503.46,834.503 516.46,833.67 529.5,833.5C 529.5,832.5 529.5,831.5 529.5,830.5C 516.826,830.819 504.159,830.986 491.5,831C 487.5,827.667 487.5,824.333 491.5,821C 495.906,819.959 500.239,819.126 504.5,818.5 Z"/></g>
<g><path style="opacity:1" fill="#ececec" d="M 598.5,817.5 C 609.172,817.333 619.839,817.5 630.5,818C 637.358,820.549 639.858,825.383 638,832.5C 637.167,834.667 635.667,836.167 633.5,837C 622.167,837.667 610.833,837.667 599.5,837C 590.622,830.825 590.289,824.325 598.5,817.5 Z"/></g>
<g><path style="opacity:1" fill="#e7e7e7" d="M 646.5,818.5 C 658.826,819.363 671.16,820.196 683.5,821C 691.481,825.279 691.481,829.613 683.5,834C 684.729,835.529 686.229,836.696 688,837.5C 688.49,838.793 688.657,840.127 688.5,841.5C 687.127,841.657 685.793,841.49 684.5,841C 681.01,838.089 677.344,835.422 673.5,833C 668.167,832.667 662.833,832.333 657.5,832C 655.963,830.89 655.297,829.39 655.5,827.5C 663.184,827.403 670.851,827.736 678.5,828.5C 680.5,828.167 682.5,827.833 684.5,827.5C 684.291,826.914 683.957,826.414 683.5,826C 672.519,824.835 661.519,824.002 650.5,823.5C 650.5,828.5 650.5,833.5 650.5,838.5C 648.833,838.5 647.167,838.5 645.5,838.5C 645.207,831.745 645.54,825.078 646.5,818.5 Z"/></g>
<g><path style="opacity:1" fill="#8c609a" d="M 919.5,816.5 C 920.461,818.265 920.795,820.265 920.5,822.5C 918.901,822.768 917.568,822.434 916.5,821.5C 917.5,821.5 918.5,821.5 919.5,821.5C 919.5,819.833 919.5,818.167 919.5,816.5 Z"/></g>
<g><path style="opacity:1" fill="#666667" d="M 582.5,822.5 C 571.833,822.5 561.167,822.5 550.5,822.5C 550.819,827.363 550.486,832.03 549.5,836.5C 549.5,831.5 549.5,826.5 549.5,821.5C 560.679,821.172 571.679,821.505 582.5,822.5 Z"/></g>
<g><path style="opacity:1" fill="#111112" d="M 601.5,821.5 C 611.183,821.623 620.85,822.123 630.5,823C 634.436,826.508 634.436,829.841 630.5,833C 620.833,833.667 611.167,833.667 601.5,833C 597.555,829.169 597.555,825.336 601.5,821.5 Z"/></g>
<g><path style="opacity:1" fill="#ececec" d="M 728.5,829.5 C 723.04,828.263 717.373,827.596 711.5,827.5C 705.768,827.717 700.101,827.217 694.5,826C 693.663,824.989 693.33,823.822 693.5,822.5C 707.538,823.148 721.538,824.315 735.5,826C 736.38,827.356 736.714,828.856 736.5,830.5C 733.794,830.425 731.127,830.092 728.5,829.5 Z"/></g>
<g><path style="opacity:1" fill="#e7e7e7" d="M 450.5,827.5 C 443.646,827.735 436.979,828.402 430.5,829.5C 425.771,829.413 421.605,830.746 418,833.5C 417.056,836.347 417.556,838.847 419.5,841C 430.151,840.39 440.817,839.557 451.5,838.5C 453.167,838.667 454.833,838.833 456.5,839C 457.727,840.587 457.394,841.921 455.5,843C 442.8,844.097 430.134,845.097 417.5,846C 413.765,844.2 412.098,841.2 412.5,837C 412.373,831.789 414.707,828.122 419.5,826C 429.829,824.833 440.162,823.667 450.5,822.5C 452.5,822.667 454.5,822.833 456.5,823C 457.925,824.714 457.592,826.047 455.5,827C 453.866,827.494 452.199,827.66 450.5,827.5 Z"/></g>
<g><path style="opacity:1" fill="#9f81aa" d="M 234.5,796.5 C 234.169,824.338 234.502,852.005 235.5,879.5C 235.44,880.043 235.107,880.376 234.5,880.5C 233.171,852.336 233.171,824.336 234.5,796.5 Z"/></g>
<g><path style="opacity:1" fill="#a2a2a2" d="M 711.5,827.5 C 717.373,827.596 723.04,828.263 728.5,829.5C 722.596,829.679 716.929,829.012 711.5,827.5 Z"/></g>
<g><path style="opacity:1" fill="#b4b4b4" d="M 467.5,829.5 C 472.305,828.513 477.305,828.179 482.5,828.5C 482.768,830.099 482.434,831.432 481.5,832.5C 481.5,831.5 481.5,830.5 481.5,829.5C 476.833,829.5 472.167,829.5 467.5,829.5 Z"/></g>
<g><path style="opacity:1" fill="#e8e8e8" d="M 745.5,827.5 C 758.861,828.744 772.194,830.244 785.5,832C 787.037,833.11 787.703,834.61 787.5,836.5C 774.504,835.167 761.504,833.834 748.5,832.5C 748.5,833.5 748.5,834.5 748.5,835.5C 759.85,836.802 771.183,838.302 782.5,840C 788.979,842.742 789.979,846.742 785.5,852C 772.136,851.33 758.803,849.997 745.5,848C 743.963,846.89 743.297,845.39 743.5,843.5C 755.117,843.893 766.617,845.227 778,847.5C 779.833,847.167 781.667,846.833 783.5,846.5C 783.291,845.914 782.957,845.414 782.5,845C 771.192,843.17 759.859,841.503 748.5,840C 741.933,836.985 740.933,832.819 745.5,827.5 Z"/></g>
<g><path style="opacity:1" fill="#2c2c2d" d="M 450.5,827.5 C 448.369,828.314 446.036,828.814 443.5,829C 444.252,829.671 444.586,830.504 444.5,831.5C 442.833,831.5 441.167,831.5 439.5,831.5C 437.012,829.612 434.012,828.945 430.5,829.5C 436.979,828.402 443.646,827.735 450.5,827.5 Z"/></g>
<g><path style="opacity:1" fill="#f1f1f1" d="M 467.5,829.5 C 472.167,829.5 476.833,829.5 481.5,829.5C 481.5,830.5 481.5,831.5 481.5,832.5C 476.595,833.445 471.595,833.779 466.5,833.5C 466.232,831.901 466.566,830.568 467.5,829.5 Z"/></g>
<g><path style="opacity:1" fill="#eaeaea" d="M 712.5,831.5 C 714.167,831.5 715.833,831.5 717.5,831.5C 717.5,835.833 717.5,840.167 717.5,844.5C 715.856,844.714 714.356,844.38 713,843.5C 712.501,839.514 712.334,835.514 712.5,831.5 Z"/></g>
<g><path style="opacity:1" fill="#e2e2e2" d="M 439.5,831.5 C 441.167,831.5 442.833,831.5 444.5,831.5C 445.801,832.884 445.801,834.384 444.5,836C 440.137,836.29 435.804,836.79 431.5,837.5C 428.025,836.714 427.692,835.214 430.5,833C 433.478,832.304 436.478,831.804 439.5,831.5 Z"/></g>
<g><path style="opacity:1" fill="#b4adb6" d="M 383.5,842.5 C 383.611,841.883 383.944,841.383 384.5,841C 381.144,840.785 377.811,840.785 374.5,841C 373.782,839.013 372.782,837.179 371.5,835.5C 370.074,837.937 368.741,840.437 367.5,843C 364.447,843.179 361.447,843.679 358.5,844.5C 360.487,846.327 362.821,847.327 365.5,847.5C 365.737,848.791 365.404,849.791 364.5,850.5C 361.477,848.136 358.144,845.969 354.5,844C 358.775,842.842 363.109,842.008 367.5,841.5C 368.246,837.93 369.579,834.596 371.5,831.5C 373.446,834.307 374.946,837.307 376,840.5C 380.071,839.252 384.238,838.752 388.5,839C 387.211,840.802 385.544,841.969 383.5,842.5 Z"/></g>
<g><path style="opacity:1" fill="#66207c" d="M 383.5,842.5 C 377.214,844.201 375.88,847.868 379.5,853.5C 379.043,854.298 378.376,854.631 377.5,854.5C 375.836,853.001 373.836,852.001 371.5,851.5C 368.888,852.935 366.388,854.602 364,856.5C 364.135,854.575 364.302,852.575 364.5,850.5C 365.404,849.791 365.737,848.791 365.5,847.5C 362.821,847.327 360.487,846.327 358.5,844.5C 361.447,843.679 364.447,843.179 367.5,843C 368.741,840.437 370.074,837.937 371.5,835.5C 372.782,837.179 373.782,839.013 374.5,841C 377.811,840.785 381.144,840.785 384.5,841C 383.944,841.383 383.611,841.883 383.5,842.5 Z"/></g>
<g><path style="opacity:1" fill="#c0b8c2" d="M 383.5,842.5 C 381.803,844.339 380.137,846.172 378.5,848C 379.5,850.333 380.5,852.667 381.5,855C 380.162,856.544 378.829,856.377 377.5,854.5C 378.376,854.631 379.043,854.298 379.5,853.5C 375.88,847.868 377.214,844.201 383.5,842.5 Z"/></g>
<g><path style="opacity:1" fill="#e6e6e6" d="M 563.5,848.5 C 573.172,848.334 582.839,848.5 592.5,849C 598.044,852.425 600.378,857.425 599.5,864C 599.333,866.5 599.167,869 599,871.5C 597.644,872.38 596.144,872.714 594.5,872.5C 594.897,867.041 594.397,861.708 593,856.5C 592.5,856 592,855.5 591.5,855C 582.5,854.333 573.5,854.333 564.5,855C 563.667,855.833 562.833,856.667 562,857.5C 561.667,862.5 561.333,867.5 561,872.5C 559.612,873.554 558.112,873.72 556.5,873C 555.361,867.584 555.194,862.084 556,856.5C 558.028,853.308 560.528,850.641 563.5,848.5 Z"/></g>
<g><path style="opacity:1" fill="#e6e7e7" d="M 603.5,848.5 C 617.855,848.358 632.189,848.858 646.5,850C 647.833,851.333 647.833,852.667 646.5,854C 632.5,854.667 618.5,854.667 604.5,854C 602.17,852.512 601.836,850.679 603.5,848.5 Z"/></g>
<g><path style="opacity:1" fill="#b0a1b8" d="M 290.5,797.5 C 290.836,820.352 291.836,843.018 293.5,865.5C 292.791,866.404 291.791,866.737 290.5,866.5C 290.5,843.5 290.5,820.5 290.5,797.5 Z"/></g>
<g><path style="opacity:1" fill="#ececec" d="M 524.5,850.5 C 532.833,850.5 541.167,850.5 549.5,850.5C 549.714,852.144 549.38,853.644 548.5,855C 536.846,855.888 525.18,856.555 513.5,857C 510.606,859.909 509.773,863.409 511,867.5C 512.255,869.594 514.088,870.594 516.5,870.5C 527.809,869.565 539.142,869.232 550.5,869.5C 550.714,871.144 550.38,872.644 549.5,874C 536.505,874.905 523.505,875.238 510.5,875C 502.237,866.744 502.57,859.078 511.5,852C 516.019,851.825 520.353,851.325 524.5,850.5 Z"/></g>
<g><path style="opacity:1" fill="#ececec" d="M 657.5,850.5 C 670.54,850.743 683.54,851.576 696.5,853C 697.833,854.333 697.833,855.667 696.5,857C 683.846,856.606 671.179,856.606 658.5,857C 655.655,861.264 655.988,865.264 659.5,869C 671.227,869.3 682.894,870.3 694.5,872C 695.517,873.049 695.684,874.216 695,875.5C 681.75,876.6 668.584,875.766 655.5,873C 649.541,864.767 650.208,857.267 657.5,850.5 Z"/></g>
<g><path style="opacity:1" fill="#b5adb7" d="M 364.5,850.5 C 364.302,852.575 364.135,854.575 364,856.5C 366.388,854.602 368.888,852.935 371.5,851.5C 373.836,852.001 375.836,853.001 377.5,854.5C 375.323,854.414 373.323,853.747 371.5,852.5C 368.6,855.199 365.433,857.533 362,859.5C 361.686,856.142 362.52,853.142 364.5,850.5 Z"/></g>
<g><path style="opacity:1" fill="#ebebeb" d="M 482.5,853.5 C 488.167,853.5 493.833,853.5 499.5,853.5C 499.714,855.144 499.38,856.644 498.5,858C 486.831,859.385 475.164,860.718 463.5,862C 458.259,866.204 458.259,870.537 463.5,875C 472.943,874.026 482.443,873.193 492,872.5C 494.833,872.667 497.667,872.833 500.5,873C 501.833,874.333 501.833,875.667 500.5,877C 487.19,878.665 473.856,879.665 460.5,880C 452.56,872.259 452.56,864.593 460.5,857C 467.99,855.934 475.324,854.767 482.5,853.5 Z"/></g>
<g><path style="opacity:1" fill="#ececec" d="M 702.5,853.5 C 714.866,854.281 727.199,855.447 739.5,857C 746.565,860.726 747.232,865.392 741.5,871C 740.167,871.333 738.833,871.667 737.5,872C 739.888,874.05 741.888,876.384 743.5,879C 743.266,880.732 742.266,881.566 740.5,881.5C 736.083,878.59 732.083,875.09 728.5,871C 723.185,870.187 717.852,869.521 712.5,869C 711.62,867.644 711.286,866.144 711.5,864.5C 720.905,864.338 730.238,865.004 739.5,866.5C 739.5,865.167 739.5,863.833 739.5,862.5C 728.545,861.074 717.545,860.074 706.5,859.5C 706.031,865.162 705.531,870.829 705,876.5C 703.644,877.38 702.144,877.714 700.5,877.5C 700.115,869.358 700.782,861.358 702.5,853.5 Z"/></g>
<g><path style="opacity:1" fill="#b4abb7" d="M 834.5,863.5 C 832.448,862.29 830.282,861.29 828,860.5C 825.343,861.077 822.843,862.077 820.5,863.5C 820.167,862.833 819.833,862.167 819.5,861.5C 820.942,858.972 821.442,856.305 821,853.5C 819.185,851.595 817.185,849.928 815,848.5C 814.517,847.552 814.351,846.552 814.5,845.5C 818.178,846.586 821.845,846.586 825.5,845.5C 826.764,842.875 827.931,840.208 829,837.5C 830.654,841.302 832.154,845.136 833.5,849C 837.5,849.833 841.5,850.667 845.5,851.5C 843.446,853.194 841.112,854.361 838.5,855C 837.426,855.739 836.759,856.739 836.5,858C 837.838,861.35 839.171,864.684 840.5,868C 837.879,867.573 835.879,866.073 834.5,863.5 Z"/></g>
<g><path style="opacity:1" fill="#641c7a" d="M 834.5,863.5 C 833.15,861.317 831.316,859.65 829,858.5C 826.117,859.577 823.283,860.41 820.5,861C 821.786,858.978 822.786,856.811 823.5,854.5C 821.644,851.81 819.311,849.644 816.5,848C 819.8,848.046 823.134,848.212 826.5,848.5C 826.755,845.984 827.589,843.65 829,841.5C 830.171,844.35 831.338,847.184 832.5,850C 835.789,850.882 839.123,851.548 842.5,852C 839.439,852.849 836.772,854.349 834.5,856.5C 835.305,858.915 836.305,861.249 837.5,863.5C 836.767,864.087 835.767,864.087 834.5,863.5 Z"/></g>
<g><path style="opacity:1" fill="#e0e0e0" d="M 623.5,857.5 C 624.822,857.33 625.989,857.663 627,858.5C 627.667,862.833 627.667,867.167 627,871.5C 625.333,874.167 623.667,874.167 622,871.5C 620.966,866.543 621.466,861.876 623.5,857.5 Z"/></g>
<g><path style="opacity:1" fill="#f0f0f0" d="M 522.5,860.5 C 527.833,860.5 533.167,860.5 538.5,860.5C 538.714,862.144 538.38,863.644 537.5,865C 532.5,865.667 527.5,865.667 522.5,865C 521.272,863.51 521.272,862.01 522.5,860.5 Z"/></g>
<g><path style="opacity:1" fill="#e4e4e4" d="M 668.5,860.5 C 673.511,860.334 678.511,860.501 683.5,861C 684.554,862.388 684.72,863.888 684,865.5C 679.252,866.635 674.419,866.802 669.5,866C 668.594,864.301 668.261,862.467 668.5,860.5 Z"/></g>
<g><path style="opacity:0.004" fill="#000000" d="M 561.5,895.5 C 566.65,894.349 571.984,894.183 577.5,895C 572.177,895.499 566.844,895.666 561.5,895.5 Z"/></g>
<g><path style="opacity:0.004" fill="#000000" d="M 622.5,895.5 C 627.65,894.349 632.984,894.183 638.5,895C 633.177,895.499 627.844,895.666 622.5,895.5 Z"/></g>
<g><path style="opacity:0.004" fill="#000000" d="M 474.5,901.5 C 475.873,901.343 477.207,901.51 478.5,902C 476.934,902.765 475.601,902.598 474.5,901.5 Z"/></g>
<g><path style="opacity:0.004" fill="#000000" d="M 724.5,901.5 C 723.749,902.573 722.749,902.74 721.5,902C 722.448,901.517 723.448,901.351 724.5,901.5 Z"/></g>
<g><path style="opacity:0.004" fill="#000000" d="M 453.5,905.5 C 453.897,904.475 454.563,904.308 455.5,905C 454.906,905.464 454.239,905.631 453.5,905.5 Z"/></g>
<g><path style="opacity:0.004" fill="#000000" d="M 744.5,905.5 C 744.897,904.475 745.563,904.308 746.5,905C 745.906,905.464 745.239,905.631 744.5,905.5 Z"/></g>
<g><path style="opacity:0.004" fill="#000000" d="M 431.5,907.5 C 432.552,907.351 433.552,907.517 434.5,908C 433.251,908.74 432.251,908.573 431.5,907.5 Z"/></g>
<g><path style="opacity:0.004" fill="#000000" d="M 765.5,908.5 C 765.897,907.475 766.563,907.308 767.5,908C 766.906,908.464 766.239,908.631 765.5,908.5 Z"/></g>
<g><path style="opacity:0.004" fill="#000000" d="M 414.5,911.5 C 414.897,910.475 415.563,910.308 416.5,911C 415.906,911.464 415.239,911.631 414.5,911.5 Z"/></g>
<g><path style="opacity:0.004" fill="#000000" d="M 783.5,910.5 C 784.833,911.167 784.833,911.167 783.5,910.5 Z"/></g>
<g><path style="opacity:0.004" fill="#000000" d="M 394.5,914.5 C 395.833,915.167 395.833,915.167 394.5,914.5 Z"/></g>
<g><path style="opacity:0.004" fill="#000000" d="M 805.5,914.5 C 804.833,915.167 804.833,915.167 805.5,914.5 Z"/></g>
<g><path style="opacity:0.004" fill="#000000" d="M 380.5,917.5 C 381.833,918.167 381.833,918.167 380.5,917.5 Z"/></g>
<g><path style="opacity:0.004" fill="#000000" d="M 817.5,918.5 C 817.897,917.475 818.563,917.308 819.5,918C 818.906,918.464 818.239,918.631 817.5,918.5 Z"/></g>
<g><path style="opacity:0.004" fill="#000000" d="M 352.5,923.5 C 353.239,923.369 353.906,923.536 354.5,924C 353.563,924.692 352.897,924.525 352.5,923.5 Z"/></g>
<g><path style="opacity:0.004" fill="#000000" d="M 846.5,923.5 C 846.103,924.525 845.437,924.692 844.5,924C 845.094,923.536 845.761,923.369 846.5,923.5 Z"/></g>
<g><path style="opacity:0.004" fill="#000000" d="M 341.5,926.5 C 342.833,927.167 342.833,927.167 341.5,926.5 Z"/></g>
<g><path style="opacity:0.004" fill="#000000" d="M 858.5,926.5 C 857.833,927.167 857.833,927.167 858.5,926.5 Z"/></g>
<g><path style="opacity:0.004" fill="#000000" d="M 315.5,933.5 C 316.833,934.167 316.833,934.167 315.5,933.5 Z"/></g>
<g><path style="opacity:0.004" fill="#000000" d="M 294.5,939.5 C 295.833,940.167 295.833,940.167 294.5,939.5 Z"/></g>
<g><path style="opacity:0.004" fill="#000000" d="M 905.5,939.5 C 904.833,940.167 904.833,940.167 905.5,939.5 Z"/></g>
<g><path style="opacity:0.004" fill="#000000" d="M 284.5,942.5 C 285.833,943.167 285.833,943.167 284.5,942.5 Z"/></g>
<g><path style="opacity:0.004" fill="#000000" d="M 914.5,942.5 C 913.833,943.167 913.833,943.167 914.5,942.5 Z"/></g>
<g><path style="opacity:0.004" fill="#000000" d="M 195.5,944.5 C 194.833,945.167 194.833,945.167 195.5,944.5 Z"/></g>
<g><path style="opacity:0.004" fill="#000000" d="M 272.5,946.5 C 273.833,947.167 273.833,947.167 272.5,946.5 Z"/></g>
<g><path style="opacity:0.004" fill="#000000" d="M 245.5,955.5 C 246.833,956.167 246.833,956.167 245.5,955.5 Z"/></g>
<g><path style="opacity:0.004" fill="#000000" d="M 952.5,955.5 C 953.833,956.167 953.833,956.167 952.5,955.5 Z"/></g>
<g><path style="opacity:0.004" fill="#000000" d="M 996.5,955.5 C 997.833,956.167 997.833,956.167 996.5,955.5 Z"/></g>
<g><path style="opacity:0.004" fill="#000000" d="M 237.5,958.5 C 238.833,959.167 238.833,959.167 237.5,958.5 Z"/></g>
<g><path style="opacity:0.004" fill="#000000" d="M 962.5,958.5 C 961.833,959.167 961.833,959.167 962.5,958.5 Z"/></g>
<g><path style="opacity:0.004" fill="#000000" d="M 221.5,961.5 C 221.833,961.5 222.167,961.5 222.5,961.5C 222.918,962.222 223.584,962.722 224.5,963C 222.167,963.667 219.833,963.667 217.5,963C 219.058,962.79 220.391,962.29 221.5,961.5 Z"/></g>
<g><path style="opacity:0.004" fill="#000000" d="M 974.5,963.5 C 976.966,962.366 979.633,962.199 982.5,963C 979.854,963.497 977.187,963.664 974.5,963.5 Z"/></g>
</svg>
